<svg version="1.1" viewBox="0.0 0.0 958.5984251968504 472.99212598425197" fill="none" stroke="none" stroke-linecap="square" stroke-miterlimit="10" xmlns:xlink="http://www.w3.org/1999/xlink" xmlns="http://www.w3.org/2000/svg">
  <clipPath id="p.0">
    <path d="m0 0l958.59845 0l0 472.99213l-958.59845 0l0 -472.99213z" clip-rule="nonzero"/>
  </clipPath>
  <g clip-path="url(#p.0)">
    <path fill="#000000" fill-opacity="0.0" d="m0 0l958.59845 0l0 472.99213l-958.59845 0z" fill-rule="evenodd"/>
    <path fill="#cfe2f3" d="m339.50394 222.83202l121.921265 0l0 120.28346l-121.921265 0z" fill-rule="evenodd"/>
    <path fill="#000000" fill-opacity="0.0" d="m201.81102 86.18898l403.622 0l0 265.92126l-403.622 0z" fill-rule="evenodd"/>
    <path stroke="#000000" fill="#ffffff" stroke-width="1.0" stroke-linejoin="round" stroke-linecap="butt" d="m201.81102 86.18898l403.622 0l0 265.92126l-403.622 0z" fill-rule="evenodd"/>
    <path fill="#000000" fill-opacity="0.0" d="m268.0315 87.24147l1.0393677 262.77167" fill-rule="evenodd"/>
    <path stroke="#000000" stroke-width="1.0" stroke-linejoin="round" stroke-linecap="butt" d="m268.0315 87.24147l1.0393677 262.77167" fill-rule="evenodd"/>
    <path fill="#000000" fill-opacity="0.0" d="m334.48294 87.24147l-0.22045898 262.77167" fill-rule="evenodd"/>
    <path stroke="#000000" stroke-width="1.0" stroke-linejoin="round" stroke-linecap="butt" d="m334.48294 87.24147l-0.22045898 262.77167" fill-rule="evenodd"/>
    <path fill="#000000" fill-opacity="0.0" d="m403.02362 87.22835l0.5984192 264.8819" fill-rule="evenodd"/>
    <path stroke="#000000" stroke-width="1.0" stroke-linejoin="round" stroke-linecap="butt" d="m403.02362 87.22835l0.5984192 264.8819" fill-rule="evenodd"/>
    <path fill="#000000" fill-opacity="0.0" d="m471.59317 87.24147l-0.6929016 262.77167" fill-rule="evenodd"/>
    <path stroke="#000000" stroke-width="1.0" stroke-linejoin="round" stroke-linecap="butt" d="m471.59317 87.24147l-0.6929016 262.77167" fill-rule="evenodd"/>
    <path fill="#000000" fill-opacity="0.0" d="m538.0446 87.22835l-0.94488525 263.84253" fill-rule="evenodd"/>
    <path stroke="#000000" stroke-width="1.0" stroke-linejoin="round" stroke-linecap="butt" d="m538.0446 87.22835l-0.94488525 263.84253" fill-rule="evenodd"/>
    <path fill="#000000" fill-opacity="0.0" d="m603.32806 150.30708l-401.51178 0" fill-rule="evenodd"/>
    <path stroke="#000000" stroke-width="1.0" stroke-linejoin="round" stroke-linecap="butt" d="m603.32806 150.30708l-401.51178 0" fill-rule="evenodd"/>
    <path fill="#000000" fill-opacity="0.0" d="m604.3779 217.81102l-401.51178 0" fill-rule="evenodd"/>
    <path stroke="#000000" stroke-width="1.0" stroke-linejoin="round" stroke-linecap="butt" d="m604.3779 217.81102l-401.51178 0" fill-rule="evenodd"/>
    <path fill="#000000" fill-opacity="0.0" d="m604.3779 285.31497l-401.51178 0" fill-rule="evenodd"/>
    <path stroke="#000000" stroke-width="1.0" stroke-linejoin="round" stroke-linecap="butt" d="m604.3779 285.31497l-401.51178 0" fill-rule="evenodd"/>
    <path fill="#ff9900" d="m277.49344 119.82415l0 0c0 -13.35051 10.822723 -24.173233 24.173218 -24.173233l0 0c6.4111633 0 12.559692 2.546814 17.093079 7.0801773c4.5333557 4.5333557 7.0801697 10.681915 7.0801697 17.093056l0 0c0 13.350502 -10.822723 24.173225 -24.173248 24.173225l0 0c-13.350494 0 -24.173218 -10.822723 -24.173218 -24.173225z" fill-rule="evenodd"/>
    <path fill="#000000" fill-opacity="0.0" d="m301.66666 95.65092l0 48.34646m-24.173218 -24.173225l48.346466 0" fill-rule="evenodd"/>
    <path fill="#000000" fill-opacity="0.0" d="m277.49344 119.82415l0 0c0 -13.35051 10.822723 -24.173233 24.173218 -24.173233l0 0c6.4111633 0 12.559692 2.546814 17.093079 7.0801773c4.5333557 4.5333557 7.0801697 10.681915 7.0801697 17.093056l0 0c0 13.350502 -10.822723 24.173225 -24.173248 24.173225l0 0c-13.350494 0 -24.173218 -10.822723 -24.173218 -24.173225z" fill-rule="evenodd"/>
    <path stroke="#000000" stroke-width="1.0" stroke-linejoin="round" stroke-linecap="butt" d="m301.66666 95.65092l0 48.34646m-24.173218 -24.173225l48.346466 0" fill-rule="evenodd"/>
    <path stroke="#000000" stroke-width="1.0" stroke-linejoin="round" stroke-linecap="butt" d="m277.49344 119.82415l0 0c0 -13.35051 10.822723 -24.173233 24.173218 -24.173233l0 0c6.4111633 0 12.559692 2.546814 17.093079 7.0801773c4.5333557 4.5333557 7.0801697 10.681915 7.0801697 17.093056l0 0c0 13.350502 -10.822723 24.173225 -24.173248 24.173225l0 0c-13.350494 0 -24.173218 -10.822723 -24.173218 -24.173225z" fill-rule="evenodd"/>
    <path fill="#ff9900" d="m344.58005 251.56299l0 0c0 -13.350494 10.822723 -24.173218 24.173248 -24.173218l0 0c6.411133 0 12.559692 2.546814 17.093048 7.0801697c4.5333557 4.5333557 7.0801697 10.681915 7.0801697 17.093048l0 0c0 13.350494 -10.822723 24.173218 -24.173218 24.173218l0 0c-13.350525 0 -24.173248 -10.822723 -24.173248 -24.173218z" fill-rule="evenodd"/>
    <path fill="#000000" fill-opacity="0.0" d="m368.7533 227.38977l0 48.346436m-24.173248 -24.173218l48.346466 0" fill-rule="evenodd"/>
    <path fill="#000000" fill-opacity="0.0" d="m344.58005 251.56299l0 0c0 -13.350494 10.822723 -24.173218 24.173248 -24.173218l0 0c6.411133 0 12.559692 2.546814 17.093048 7.0801697c4.5333557 4.5333557 7.0801697 10.681915 7.0801697 17.093048l0 0c0 13.350494 -10.822723 24.173218 -24.173218 24.173218l0 0c-13.350525 0 -24.173248 -10.822723 -24.173248 -24.173218z" fill-rule="evenodd"/>
    <path stroke="#000000" stroke-width="1.0" stroke-linejoin="round" stroke-linecap="butt" d="m368.7533 227.38977l0 48.346436m-24.173248 -24.173218l48.346466 0" fill-rule="evenodd"/>
    <path stroke="#000000" stroke-width="1.0" stroke-linejoin="round" stroke-linecap="butt" d="m344.58005 251.56299l0 0c0 -13.350494 10.822723 -24.173218 24.173248 -24.173218l0 0c6.411133 0 12.559692 2.546814 17.093048 7.0801697c4.5333557 4.5333557 7.0801697 10.681915 7.0801697 17.093048l0 0c0 13.350494 -10.822723 24.173218 -24.173218 24.173218l0 0c-13.350525 0 -24.173248 -10.822723 -24.173248 -24.173218z" fill-rule="evenodd"/>
    <path fill="#ff9900" d="m413.08792 318.9475l0 0c0 -13.350494 10.822723 -24.173218 24.173248 -24.173218l0 0c6.411133 0 12.559692 2.546814 17.093048 7.0801697c4.5333557 4.5333557 7.0801697 10.681915 7.0801697 17.093048l0 0c0 13.350494 -10.822723 24.173218 -24.173218 24.173218l0 0c-13.350525 0 -24.173248 -10.822723 -24.173248 -24.173218z" fill-rule="evenodd"/>
    <path fill="#000000" fill-opacity="0.0" d="m437.26117 294.7743l0 48.346436m-24.173248 -24.173218l48.346466 0" fill-rule="evenodd"/>
    <path fill="#000000" fill-opacity="0.0" d="m413.08792 318.9475l0 0c0 -13.350494 10.822723 -24.173218 24.173248 -24.173218l0 0c6.411133 0 12.559692 2.546814 17.093048 7.0801697c4.5333557 4.5333557 7.0801697 10.681915 7.0801697 17.093048l0 0c0 13.350494 -10.822723 24.173218 -24.173218 24.173218l0 0c-13.350525 0 -24.173248 -10.822723 -24.173248 -24.173218z" fill-rule="evenodd"/>
    <path stroke="#000000" stroke-width="1.0" stroke-linejoin="round" stroke-linecap="butt" d="m437.26117 294.7743l0 48.346436m-24.173248 -24.173218l48.346466 0" fill-rule="evenodd"/>
    <path stroke="#000000" stroke-width="1.0" stroke-linejoin="round" stroke-linecap="butt" d="m413.08792 318.9475l0 0c0 -13.350494 10.822723 -24.173218 24.173248 -24.173218l0 0c6.411133 0 12.559692 2.546814 17.093048 7.0801697c4.5333557 4.5333557 7.0801697 10.681915 7.0801697 17.093048l0 0c0 13.350494 -10.822723 24.173218 -24.173218 24.173218l0 0c-13.350525 0 -24.173248 -10.822723 -24.173248 -24.173218z" fill-rule="evenodd"/>
    <path fill="#ff9900" d="m548.32544 119.82415l0 0c0 -13.35051 10.822754 -24.173233 24.173218 -24.173233l0 0c6.411194 0 12.559753 2.546814 17.093079 7.0801773c4.533386 4.5333557 7.0802 10.681915 7.0802 17.093056l0 0c0 13.350502 -10.822754 24.173225 -24.173279 24.173225l0 0c-13.350464 0 -24.173218 -10.822723 -24.173218 -24.173225z" fill-rule="evenodd"/>
    <path fill="#000000" fill-opacity="0.0" d="m572.49866 95.65092l0 48.34646m-24.173218 -24.173225l48.346497 0" fill-rule="evenodd"/>
    <path fill="#000000" fill-opacity="0.0" d="m548.32544 119.82415l0 0c0 -13.35051 10.822754 -24.173233 24.173218 -24.173233l0 0c6.411194 0 12.559753 2.546814 17.093079 7.0801773c4.533386 4.5333557 7.0802 10.681915 7.0802 17.093056l0 0c0 13.350502 -10.822754 24.173225 -24.173279 24.173225l0 0c-13.350464 0 -24.173218 -10.822723 -24.173218 -24.173225z" fill-rule="evenodd"/>
    <path stroke="#000000" stroke-width="1.0" stroke-linejoin="round" stroke-linecap="butt" d="m572.49866 95.65092l0 48.34646m-24.173218 -24.173225l48.346497 0" fill-rule="evenodd"/>
    <path stroke="#000000" stroke-width="1.0" stroke-linejoin="round" stroke-linecap="butt" d="m548.32544 119.82415l0 0c0 -13.35051 10.822754 -24.173233 24.173218 -24.173233l0 0c6.411194 0 12.559753 2.546814 17.093079 7.0801773c4.533386 4.5333557 7.0802 10.681915 7.0802 17.093056l0 0c0 13.350502 -10.822754 24.173225 -24.173279 24.173225l0 0c-13.350464 0 -24.173218 -10.822723 -24.173218 -24.173225z" fill-rule="evenodd"/>
    <path fill="#000000" fill-opacity="0.0" d="m201.81102 51.503937l402.58264 0" fill-rule="evenodd"/>
    <path stroke="#000000" stroke-width="1.0" stroke-linejoin="round" stroke-linecap="butt" d="m207.81102 51.503937l390.58264 0" fill-rule="evenodd"/>
    <path fill="#000000" stroke="#000000" stroke-width="1.0" stroke-linecap="butt" d="m207.81102 49.852203l-4.538101 1.6517334l4.538101 1.6517334z" fill-rule="evenodd"/>
    <path fill="#000000" stroke="#000000" stroke-width="1.0" stroke-linecap="butt" d="m598.3937 53.15567l4.538147 -1.6517334l-4.538147 -1.6517334z" fill-rule="evenodd"/>
    <path fill="#000000" fill-opacity="0.0" d="m168.17586 89.343834l1.0393677 263.8425" fill-rule="evenodd"/>
    <path stroke="#000000" stroke-width="1.0" stroke-linejoin="round" stroke-linecap="butt" d="m168.19948 95.34378l0.9921112 251.84262" fill-rule="evenodd"/>
    <path fill="#000000" stroke="#000000" stroke-width="1.0" stroke-linecap="butt" d="m169.85121 95.33728l-1.6696014 -4.531555l-1.6338348 4.5445633z" fill-rule="evenodd"/>
    <path fill="#000000" stroke="#000000" stroke-width="1.0" stroke-linecap="butt" d="m167.53987 347.1929l1.6695862 4.531555l1.6338501 -4.5445557z" fill-rule="evenodd"/>
    <path fill="#000000" fill-opacity="0.0" d="m392.9265 21.023623l100.91339 0l0 21.007875l-100.91339 0z" fill-rule="evenodd"/>
    <path fill="#000000" d="m411.20776 37.865494l-1.625 0.125q-0.21875 -0.96875 -0.625 -1.40625q-0.65625 -0.703125 -1.640625 -0.703125q-0.78125 0 -1.375 0.4375q-0.765625 0.5625 -1.21875 1.65625q-0.453125 1.078125 -0.46875 3.078125q0.59375 -0.890625 1.453125 -1.328125q0.859375 -0.4375 1.796875 -0.4375q1.640625 0 2.78125 1.203125q1.15625 1.203125 1.15625 3.109375q0 1.265625 -0.546875 2.34375q-0.53125 1.078125 -1.484375 1.65625q-0.9375 0.578125 -2.140625 0.578125q-2.0625 0 -3.359375 -1.5q-1.28125 -1.515625 -1.28125 -4.984375q0 -3.875 1.421875 -5.625q1.25 -1.53125 3.375 -1.53125q1.5625 0 2.5625 0.890625q1.015625 0.875 1.21875 2.4375zm-6.6875 5.75q0 0.84375 0.359375 1.625q0.359375 0.765625 1.0 1.171875q0.640625 0.40625 1.359375 0.40625q1.03125 0 1.78125 -0.828125q0.75 -0.84375 0.75 -2.28125q0 -1.390625 -0.734375 -2.1875q-0.734375 -0.796875 -1.859375 -0.796875q-1.109375 0 -1.890625 0.796875q-0.765625 0.796875 -0.765625 2.09375z" fill-rule="nonzero"/>
    <path fill="#000000" fill-opacity="0.0" d="m138.79265 196.80315l100.91339 0l0 21.007874l-100.91339 0z" fill-rule="evenodd"/>
    <path fill="#000000" d="m153.8239 223.72314l0 -3.203125l-5.796875 0l0 -1.5l6.09375 -8.65625l1.34375 0l0 8.65625l1.796875 0l0 1.5l-1.796875 0l0 3.203125l-1.640625 0zm0 -4.703125l0 -6.015625l-4.1875 6.015625l4.1875 0z" fill-rule="nonzero"/>
    <path fill="#cfe2f3" d="m705.5171 95.65092l54.42517 0l0 48.34646l-54.42517 0z" fill-rule="evenodd"/>
    <path stroke="#000000" stroke-width="3.0" stroke-linejoin="round" stroke-linecap="butt" stroke-dasharray="12.0,9.0" d="m705.5171 95.65092l54.42517 0l0 48.34646l-54.42517 0z" fill-rule="evenodd"/>
    <path fill="#ff9900" d="m708.55646 188.37796l0 0c0 -13.35051 10.822693 -24.173233 24.173218 -24.173233l0 0c6.411133 0 12.559692 2.546814 17.093018 7.0801697c4.533386 4.5333557 7.0802 10.681915 7.0802 17.093063l0 0c0 13.350494 -10.822754 24.173218 -24.173218 24.173218l0 0c-13.350525 0 -24.173218 -10.822723 -24.173218 -24.173218z" fill-rule="evenodd"/>
    <path fill="#000000" fill-opacity="0.0" d="m732.7297 164.20473l0 48.34645m-24.173218 -24.173218l48.346436 0" fill-rule="evenodd"/>
    <path fill="#000000" fill-opacity="0.0" d="m708.55646 188.37796l0 0c0 -13.35051 10.822693 -24.173233 24.173218 -24.173233l0 0c6.411133 0 12.559692 2.546814 17.093018 7.0801697c4.533386 4.5333557 7.0802 10.681915 7.0802 17.093063l0 0c0 13.350494 -10.822754 24.173218 -24.173218 24.173218l0 0c-13.350525 0 -24.173218 -10.822723 -24.173218 -24.173218z" fill-rule="evenodd"/>
    <path stroke="#000000" stroke-width="1.0" stroke-linejoin="round" stroke-linecap="butt" d="m732.7297 164.20473l0 48.34645m-24.173218 -24.173218l48.346436 0" fill-rule="evenodd"/>
    <path stroke="#000000" stroke-width="1.0" stroke-linejoin="round" stroke-linecap="butt" d="m708.55646 188.37796l0 0c0 -13.35051 10.822693 -24.173233 24.173218 -24.173233l0 0c6.411133 0 12.559692 2.546814 17.093018 7.0801697c4.533386 4.5333557 7.0802 10.681915 7.0802 17.093063l0 0c0 13.350494 -10.822754 24.173218 -24.173218 24.173218l0 0c-13.350525 0 -24.173218 -10.822723 -24.173218 -24.173218z" fill-rule="evenodd"/>
    <path fill="#000000" fill-opacity="0.0" d="m779.96326 101.13911l121.921265 0l0 21.007874l-121.921265 0z" fill-rule="evenodd"/>
    <path fill="#000000" d="m790.432 128.05911l0 -13.359383l9.65625 0l0 1.578125l-7.875 0l0 4.09375l7.375 0l0 1.5625l-7.375 0l0 4.546875l8.1875 0l0 1.5781326l-9.96875 0zm11.1154175 0l3.53125 -5.0312576l-3.265625 -4.640625l2.046875 0l1.484375 2.265625q0.421875 0.640625 0.671875 1.078125q0.40625 -0.59375 0.734375 -1.0625l1.640625 -2.28125l1.953125 0l-3.34375 4.546875l3.59375 5.1250076l-2.015625 0l-1.984375 -3.0000076l-0.515625 -0.8125l-2.546875 3.8125076l-1.984375 0zm10.421875 3.703125l0 -13.375008l1.484375 0l0 1.25q0.53125 -0.734375 1.1875 -1.09375q0.671875 -0.375 1.625 -0.375q1.234375 0 2.171875 0.640625q0.953125 0.625 1.4375 1.796875q0.484375 1.15625 0.484375 2.546875q0 1.484375 -0.53125 2.671875q-0.53125 1.1875 -1.546875 1.828125q-1.015625 0.6250076 -2.140625 0.6250076q-0.8125 0 -1.46875 -0.34375763q-0.65625 -0.34375 -1.0625 -0.875l0 4.7031326l-1.640625 0zm1.484375 -8.484383q0 1.859375 0.75 2.765625q0.765625 0.890625 1.828125 0.890625q1.09375 0 1.875 -0.921875q0.78125 -0.9375 0.78125 -2.875q0 -1.84375 -0.765625 -2.765625q-0.75 -0.921875 -1.8125 -0.921875q-1.046875 0 -1.859375 0.984375q-0.796875 0.96875 -0.796875 2.84375zm8.844482 4.7812576l0 -13.359383l1.640625 0l0 13.359383l-1.640625 0zm3.5823364 -4.8437576q0 -2.6875 1.484375 -3.96875q1.25 -1.078125 3.046875 -1.078125q2.0 0 3.265625 1.3125q1.265625 1.296875 1.265625 3.609375q0 1.859375 -0.5625 2.9375q-0.5625 1.0625 -1.640625 1.65625q-1.0625 0.5937576 -2.328125 0.5937576q-2.03125 0 -3.28125 -1.2968826q-1.25 -1.3125 -1.25 -3.765625zm1.6875 0q0 1.859375 0.796875 2.796875q0.8125 0.921875 2.046875 0.921875q1.21875 0 2.03125 -0.921875q0.8125 -0.9375 0.8125 -2.84375q0 -1.796875 -0.8125 -2.71875q-0.8125 -0.921875 -2.03125 -0.921875q-1.234375 0 -2.046875 0.921875q-0.796875 0.90625 -0.796875 2.765625zm9.297607 -6.625l0 -1.890625l1.640625 0l0 1.890625l-1.640625 0zm0 11.468758l0 -9.671883l1.640625 0l0 9.671883l-1.640625 0zm7.7229004 -1.4687576l0.234375 1.4531326q-0.6875 0.140625 -1.234375 0.140625q-0.890625 0 -1.390625 -0.28125763q-0.484375 -0.28125 -0.6875 -0.734375q-0.203125 -0.46875 -0.203125 -1.9375l0 -5.578125l-1.203125 0l0 -1.265625l1.203125 0l0 -2.390625l1.625 -0.984375l0 3.375l1.65625 0l0 1.265625l-1.65625 0l0 5.671875q0 0.6875 0.078125 0.890625q0.09375 0.203125 0.28125 0.328125q0.203125 0.109375 0.578125 0.109375q0.265625 0 0.71875 -0.0625zm7.9177246 0.28125q-0.921875 0.765625 -1.765625 1.09375q-0.828125 0.31250763 -1.796875 0.31250763q-1.59375 0 -2.453125 -0.7812576q-0.859375 -0.78125 -0.859375 -1.984375q0 -0.71875 0.328125 -1.296875q0.328125 -0.59375 0.84375 -0.9375q0.53125 -0.359375 1.1875 -0.546875q0.46875 -0.125 1.453125 -0.25q1.984375 -0.234375 2.921875 -0.5625q0.015625 -0.34375 0.015625 -0.421875q0 -1.0 -0.46875 -1.421875q-0.625 -0.546875 -1.875 -0.546875q-1.15625 0 -1.703125 0.40625q-0.546875 0.40625 -0.8125 1.421875l-1.609375 -0.21875q0.21875 -1.015625 0.71875 -1.640625q0.5 -0.640625 1.453125 -0.984375q0.953125 -0.34375 2.1875 -0.34375q1.25 0 2.015625 0.296875q0.78125 0.28125 1.140625 0.734375q0.375 0.4375 0.515625 1.109375q0.078125 0.421875 0.078125 1.515625l0 2.1875q0 2.28125 0.109375 2.890625q0.109375 0.59375 0.40625 1.1562576l-1.703125 0q-0.265625 -0.5156326 -0.328125 -1.1875076zm-0.140625 -3.671875q-0.890625 0.375 -2.671875 0.625q-1.015625 0.140625 -1.4375 0.328125q-0.421875 0.1875 -0.65625 0.53125q-0.21875 0.34375 -0.21875 0.78125q0 0.65625 0.5 1.09375q0.5 0.4375 1.453125 0.4375q0.9375 0 1.671875 -0.40625q0.75 -0.421875 1.09375 -1.140625q0.265625 -0.5625 0.265625 -1.640625l0 -0.609375zm7.7819214 3.390625l0.234375 1.4531326q-0.6875 0.140625 -1.234375 0.140625q-0.890625 0 -1.390625 -0.28125763q-0.484375 -0.28125 -0.6875 -0.734375q-0.203125 -0.46875 -0.203125 -1.9375l0 -5.578125l-1.203125 0l0 -1.265625l1.203125 0l0 -2.390625l1.625 -0.984375l0 3.375l1.65625 0l0 1.265625l-1.65625 0l0 5.671875q0 0.6875 0.078125 0.890625q0.09375 0.203125 0.28125 0.328125q0.203125 0.109375 0.578125 0.109375q0.265625 0 0.71875 -0.0625zm1.6052246 -10.0l0 -1.890625l1.640625 0l0 1.890625l-1.640625 0zm0 11.468758l0 -9.671883l1.640625 0l0 9.671883l-1.640625 0zm3.5354004 -4.8437576q0 -2.6875 1.484375 -3.96875q1.25 -1.078125 3.046875 -1.078125q2.0 0 3.265625 1.3125q1.265625 1.296875 1.265625 3.609375q0 1.859375 -0.5625 2.9375q-0.5625 1.0625 -1.640625 1.65625q-1.0625 0.5937576 -2.328125 0.5937576q-2.03125 0 -3.28125 -1.2968826q-1.25 -1.3125 -1.25 -3.765625zm1.6875 0q0 1.859375 0.796875 2.796875q0.8125 0.921875 2.046875 0.921875q1.21875 0 2.03125 -0.921875q0.8125 -0.9375 0.8125 -2.84375q0 -1.796875 -0.8125 -2.71875q-0.8125 -0.921875 -2.03125 -0.921875q-1.234375 0 -2.046875 0.921875q-0.796875 0.90625 -0.796875 2.765625zm9.297607 4.8437576l0 -9.671883l1.46875 0l0 1.375q1.0625 -1.59375 3.078125 -1.59375q0.875 0 1.609375 0.3125q0.734375 0.3125 1.09375 0.828125q0.375 0.5 0.515625 1.203125q0.09375 0.453125 0.09375 1.59375l0 5.9531326l-1.640625 0l0 -5.8906326q0 -1.0 -0.203125 -1.484375q-0.1875 -0.5 -0.671875 -0.796875q-0.484375 -0.296875 -1.140625 -0.296875q-1.046875 0 -1.8125 0.671875q-0.75 0.65625 -0.75 2.515625l0 5.2812576l-1.640625 0z" fill-rule="nonzero"/>
    <path fill="#000000" fill-opacity="0.0" d="m779.96326 171.59055l130.2992 0l0 21.007874l-130.2992 0z" fill-rule="evenodd"/>
    <path fill="#000000" d="m796.65076 193.27617l0 -1.578125l5.65625 0l0 4.953125q-1.296875 1.046875 -2.6875 1.578125q-1.375 0.515625 -2.84375 0.515625q-1.96875 0 -3.578125 -0.84375q-1.609375 -0.84375 -2.421875 -2.4375q-0.8125 -1.59375 -0.8125 -3.5625q0 -1.953125 0.8125 -3.640625q0.8125 -1.6875 2.34375 -2.5q1.53125 -0.828125 3.515625 -0.828125q1.453125 0 2.625 0.46875q1.171875 0.46875 1.828125 1.3125q0.671875 0.828125 1.015625 2.171875l-1.59375 0.4375q-0.296875 -1.015625 -0.75 -1.59375q-0.4375 -0.59375 -1.265625 -0.9375q-0.828125 -0.34375 -1.84375 -0.34375q-1.203125 0 -2.09375 0.375q-0.890625 0.359375 -1.4375 0.96875q-0.53125 0.59375 -0.828125 1.3125q-0.515625 1.234375 -0.515625 2.6875q0 1.78125 0.609375 2.984375q0.625 1.203125 1.796875 1.796875q1.171875 0.578125 2.5 0.578125q1.140625 0 2.234375 -0.4375q1.09375 -0.453125 1.65625 -0.953125l0 -2.484375l-3.921875 0zm7.4489136 0.390625q0 -2.6875 1.484375 -3.96875q1.25 -1.078125 3.046875 -1.078125q2.0 0 3.265625 1.3125q1.265625 1.296875 1.265625 3.609375q0 1.859375 -0.5625 2.9375q-0.5625 1.0625 -1.640625 1.65625q-1.0625 0.59375 -2.328125 0.59375q-2.03125 0 -3.28125 -1.296875q-1.25 -1.3125 -1.25 -3.765625zm1.6875 0q0 1.859375 0.796875 2.796875q0.8125 0.921875 2.046875 0.921875q1.21875 0 2.03125 -0.921875q0.8125 -0.9375 0.8125 -2.84375q0 -1.796875 -0.8125 -2.71875q-0.8125 -0.921875 -2.03125 -0.921875q-1.234375 0 -2.046875 0.921875q-0.796875 0.90625 -0.796875 2.765625zm9.250732 4.84375l0 -13.359375l1.640625 0l0 13.359375l-1.640625 0zm10.457336 0l0 -1.21875q-0.90625 1.4375 -2.703125 1.4375q-1.15625 0 -2.125 -0.640625q-0.96875 -0.640625 -1.5 -1.78125q-0.53125 -1.140625 -0.53125 -2.625q0 -1.453125 0.484375 -2.625q0.484375 -1.1875 1.4375 -1.8125q0.96875 -0.625 2.171875 -0.625q0.875 0 1.546875 0.375q0.6875 0.359375 1.109375 0.953125l0 -4.796875l1.640625 0l0 13.359375l-1.53125 0zm-5.171875 -4.828125q0 1.859375 0.78125 2.78125q0.78125 0.921875 1.84375 0.921875q1.078125 0 1.828125 -0.875q0.75 -0.890625 0.75 -2.6875q0 -1.984375 -0.765625 -2.90625q-0.765625 -0.9375 -1.890625 -0.9375q-1.078125 0 -1.8125 0.890625q-0.734375 0.890625 -0.734375 2.8125zm14.465271 4.828125l0 -9.671875l1.46875 0l0 1.359375q0.453125 -0.71875 1.203125 -1.140625q0.765625 -0.4375 1.71875 -0.4375q1.078125 0 1.765625 0.453125q0.6875 0.4375 0.96875 1.234375q1.15625 -1.6875 2.984375 -1.6875q1.453125 0 2.21875 0.796875q0.78125 0.796875 0.78125 2.453125l0 6.640625l-1.640625 0l0 -6.09375q0 -0.984375 -0.15625 -1.40625q-0.15625 -0.4375 -0.578125 -0.703125q-0.421875 -0.265625 -0.984375 -0.265625q-1.015625 0 -1.6875 0.6875q-0.671875 0.671875 -0.671875 2.15625l0 5.625l-1.640625 0l0 -6.28125q0 -1.09375 -0.40625 -1.640625q-0.40625 -0.546875 -1.3125 -0.546875q-0.6875 0 -1.28125 0.359375q-0.59375 0.359375 -0.859375 1.0625q-0.25 0.703125 -0.25 2.03125l0 5.015625l-1.640625 0zm15.5407715 -11.46875l0 -1.890625l1.640625 0l0 1.890625l-1.640625 0zm0 11.46875l0 -9.671875l1.640625 0l0 9.671875l-1.640625 0zm4.1448364 0l0 -9.671875l1.46875 0l0 1.375q1.0625 -1.59375 3.078125 -1.59375q0.875 0 1.609375 0.3125q0.734375 0.3125 1.09375 0.828125q0.375 0.5 0.515625 1.203125q0.09375 0.453125 0.09375 1.59375l0 5.953125l-1.640625 0l0 -5.890625q0 -1.0 -0.203125 -1.484375q-0.1875 -0.5 -0.671875 -0.796875q-0.484375 -0.296875 -1.140625 -0.296875q-1.046875 0 -1.8125 0.671875q-0.75 0.65625 -0.75 2.515625l0 5.28125l-1.640625 0zm17.000732 -3.109375l1.6875 0.203125q-0.40625 1.484375 -1.484375 2.3125q-1.078125 0.8125 -2.765625 0.8125q-2.125 0 -3.375 -1.296875q-1.234375 -1.3125 -1.234375 -3.671875q0 -2.453125 1.25 -3.796875q1.265625 -1.34375 3.265625 -1.34375q1.9375 0 3.15625 1.328125q1.234375 1.3125 1.234375 3.703125q0 0.15625 0 0.4375l-7.21875 0q0.09375 1.59375 0.90625 2.453125q0.8125 0.84375 2.015625 0.84375q0.90625 0 1.546875 -0.46875q0.640625 -0.484375 1.015625 -1.515625zm-5.390625 -2.65625l5.40625 0q-0.109375 -1.21875 -0.625 -1.828125q-0.78125 -0.953125 -2.03125 -0.953125q-1.125 0 -1.90625 0.765625q-0.765625 0.75 -0.84375 2.015625z" fill-rule="nonzero"/>
    <path fill="#000000" fill-opacity="0.0" d="m705.3097 252.48819l54.425232 0l0 48.346466l-54.425232 0z" fill-rule="evenodd"/>
    <path stroke="#000000" stroke-width="1.0" stroke-linejoin="round" stroke-linecap="butt" d="m705.3097 252.48819l54.425232 0l0 48.346466l-54.425232 0z" fill-rule="evenodd"/>
    <path fill="#000000" fill-opacity="0.0" d="m779.96326 254.60892l121.921265 0l0 21.007874l-121.921265 0z" fill-rule="evenodd"/>
    <path fill="#000000" d="m790.32263 281.52893l0 -13.359375l1.78125 0l0 11.78125l6.5625 0l0 1.578125l-8.34375 0zm16.563232 -1.1875q-0.921875 0.765625 -1.765625 1.09375q-0.828125 0.3125 -1.796875 0.3125q-1.59375 0 -2.453125 -0.78125q-0.859375 -0.78125 -0.859375 -1.984375q0 -0.71875 0.328125 -1.296875q0.328125 -0.59375 0.84375 -0.9375q0.53125 -0.359375 1.1875 -0.546875q0.46875 -0.125 1.453125 -0.25q1.984375 -0.234375 2.921875 -0.5625q0.015625 -0.34375 0.015625 -0.421875q0 -1.0 -0.46875 -1.421875q-0.625 -0.546875 -1.875 -0.546875q-1.15625 0 -1.703125 0.40625q-0.546875 0.40625 -0.8125 1.421875l-1.609375 -0.21875q0.21875 -1.015625 0.71875 -1.640625q0.5 -0.640625 1.453125 -0.984375q0.953125 -0.34375 2.1875 -0.34375q1.25 0 2.015625 0.296875q0.78125 0.28125 1.140625 0.734375q0.375 0.4375 0.515625 1.109375q0.078125 0.421875 0.078125 1.515625l0 2.1875q0 2.28125 0.109375 2.890625q0.109375 0.59375 0.40625 1.15625l-1.703125 0q-0.265625 -0.515625 -0.328125 -1.1875zm-0.140625 -3.671875q-0.890625 0.375 -2.671875 0.625q-1.015625 0.140625 -1.4375 0.328125q-0.421875 0.1875 -0.65625 0.53125q-0.21875 0.34375 -0.21875 0.78125q0 0.65625 0.5 1.09375q0.5 0.4375 1.453125 0.4375q0.9375 0 1.671875 -0.40625q0.75 -0.421875 1.09375 -1.140625q0.265625 -0.5625 0.265625 -1.640625l0 -0.609375zm4.2037964 4.859375l0 -9.671875l1.46875 0l0 1.375q1.0625 -1.59375 3.078125 -1.59375q0.875 0 1.609375 0.3125q0.734375 0.3125 1.09375 0.828125q0.375 0.5 0.515625 1.203125q0.09375 0.453125 0.09375 1.59375l0 5.953125l-1.640625 0l0 -5.890625q0 -1.0 -0.203125 -1.484375q-0.1875 -0.5 -0.671875 -0.796875q-0.484375 -0.296875 -1.140625 -0.296875q-1.046875 0 -1.8125 0.671875q-0.75 0.65625 -0.75 2.515625l0 5.28125l-1.640625 0zm16.641357 0l0 -1.21875q-0.90625 1.4375 -2.703125 1.4375q-1.15625 0 -2.125 -0.640625q-0.96875 -0.640625 -1.5 -1.78125q-0.53125 -1.140625 -0.53125 -2.625q0 -1.453125 0.484375 -2.625q0.484375 -1.1875 1.4375 -1.8125q0.96875 -0.625 2.171875 -0.625q0.875 0 1.546875 0.375q0.6875 0.359375 1.109375 0.953125l0 -4.796875l1.640625 0l0 13.359375l-1.53125 0zm-5.171875 -4.828125q0 1.859375 0.78125 2.78125q0.78125 0.921875 1.84375 0.921875q1.078125 0 1.828125 -0.875q0.75 -0.890625 0.75 -2.6875q0 -1.984375 -0.765625 -2.90625q-0.765625 -0.9375 -1.890625 -0.9375q-1.078125 0 -1.8125 0.890625q-0.734375 0.890625 -0.734375 2.8125z" fill-rule="nonzero"/>
    <path fill="#000000" fill-opacity="0.0" d="m89.16798 386.7953l764.1575 0l0 30.48819l-764.1575 0z" fill-rule="evenodd"/>
    <path fill="#000000" d="m107.85548 402.27777l-0.28125 1.015625q-1.40625 -0.234375 -2.40625 -0.234375q-1.03125 0 -1.515625 0.234375q-0.421875 0.203125 -0.53125 0.515625q-0.109375 0.296875 -0.109375 1.1875l0 0.625l4.03125 0l0 1.015625l-4.03125 0l0 6.046875l4.03125 0l0 1.03125l-7.046875 0l0 -1.03125l1.984375 0l0 -6.046875l-1.984375 0l0 -1.015625l1.984375 0l0 -1.234375q0 -0.59375 0.15625 -1.078125q0.171875 -0.484375 0.84375 -0.875q0.6875 -0.390625 2.109375 -0.390625q1.0625 0 2.765625 0.234375zm7.725006 1.53125l-1.328125 0l0 -2.296875l1.328125 0l0 2.296875zm0 8.875l3.21875 0l0 1.03125l-7.53125 0l0 -1.03125l3.28125 0l0 -6.046875l-2.84375 0l0 -1.015625l3.875 0l0 7.0625zm14.193764 -4.84375l0 4.84375l1.53125 0l0 1.03125l-4.0781326 0l0 -1.03125l1.5312576 0l0 -4.8125q0 -0.6875 -0.46875 -1.078125q-0.45313263 -0.390625 -1.3750076 -0.390625q-0.796875 0 -1.703125 0.4375q-0.890625 0.4375 -1.484375 1.078125l0 4.765625l1.546875 0l0 1.03125l-4.109375 0l0 -1.03125l1.5625 0l0 -6.015625l-1.5625 0l0 -1.046875l2.5625 0l0 1.171875q0.765625 -0.6875 1.671875 -1.046875q0.90625 -0.375 1.8125 -0.375q2.5625076 0 2.5625076 2.46875zm11.365631 4.84375l1.484375 0l0 1.03125l-2.5 0l0 -1.421875q-0.546875 0.78125 -1.40625 1.21875q-0.84375 0.421875 -1.859375 0.421875q-1.234375 0 -2.171875 -0.5625q-0.9375 -0.578125 -1.46875 -1.546875q-0.515625 -0.984375 -0.515625 -2.171875q0 -1.21875 0.53125 -2.1875q0.546875 -0.96875 1.5 -1.53125q0.96875 -0.5625 2.203125 -0.5625q2.046875 0 3.1875 1.453125l0 -3.78125l-2.53125 0l0 -1.03125l3.546875 0l0 10.671875zm-4.265625 0.234375q0.921875 0 1.640625 -0.421875q0.71875 -0.4375 1.109375 -1.1875q0.40625 -0.765625 0.40625 -1.734375q0 -1.421875 -0.828125 -2.296875q-0.828125 -0.875 -2.34375 -0.875q-0.875 0 -1.59375 0.4375q-0.71875 0.4375 -1.125 1.1875q-0.40625 0.75 -0.40625 1.625q0 0.875 0.390625 1.625q0.390625 0.734375 1.109375 1.1875q0.71875 0.453125 1.640625 0.453125zm14.803131 -9.015625q0.375 0.390625 0.5625 0.96875q0.203125 0.5625 0.203125 1.125q0 1.734375 -1.59375 2.4375q1.09375 0.21875 1.6875 0.875q0.609375 0.65625 0.609375 1.609375q0 1.15625 -0.84375 1.984375q-0.828125 0.8125 -2.59375 0.8125l-5.984375 0l0 -1.03125l1.453125 0l0 -8.609375l-1.453125 0l0 -1.03125l4.921875 0q2.1875 0 3.03125 0.859375zm-0.265625 2.015625q0 -0.875 -0.71875 -1.421875q-0.34375 -0.234375 -0.890625 -0.328125q-0.53125 -0.09375 -1.640625 -0.09375l-1.953125 0l0 3.859375l2.4375 0q1.515625 0 2.140625 -0.5625q0.625 -0.5625 0.625 -1.453125zm0.703125 5.015625q0 -0.96875 -0.90625 -1.453125q-0.890625 -0.5 -2.21875 -0.5l-2.78125 0l0 3.703125l3.109375 0q2.796875 0 2.796875 -1.75zm11.912506 -1.140625l-7.65625 0q0.015625 1.296875 0.8125 2.21875q0.796875 0.921875 2.734375 0.921875q0.84375 0 1.890625 -0.3125q1.046875 -0.3125 2.015625 -0.84375l0.3125 0.984375q-1.046875 0.5625 -2.15625 0.875q-1.109375 0.296875 -2.109375 0.296875q-2.15625 0 -3.359375 -1.15625q-1.203125 -1.171875 -1.203125 -3.109375q0 -1.25 0.578125 -2.21875q0.59375 -0.984375 1.609375 -1.53125q1.03125 -0.546875 2.28125 -0.546875q1.96875 0 3.09375 1.1875q1.140625 1.171875 1.15625 3.234375zm-4.28125 -3.375q-1.3125 0 -2.234375 0.65625q-0.90625 0.65625 -1.09375 1.703125l6.5 0q-0.109375 -1.015625 -0.96875 -1.6875q-0.859375 -0.671875 -2.203125 -0.671875zm13.756256 -0.296875l0 -0.75l1.0 0l0 2.953125l-1.0 0l0 -1.109375q-0.640625 -0.390625 -1.375 -0.59375q-0.734375 -0.21875 -1.46875 -0.21875q-1.0625 0 -1.75 0.375q-0.6875 0.375 -0.6875 1.03125q0 0.6875 0.796875 1.03125q0.796875 0.328125 2.671875 0.34375q1.265625 0.015625 1.984375 0.265625q0.71875 0.234375 1.0 0.671875q0.28125 0.4375 0.28125 1.15625q0 1.203125 -0.984375 1.9375q-0.984375 0.71875 -2.5625 0.71875q-0.859375 0 -1.609375 -0.171875q-0.734375 -0.171875 -1.703125 -0.65625l0 0.828125l-1.03125 0l0 -3.171875l1.03125 0l0 1.109375q1.359375 1.046875 3.09375 1.046875q1.234375 0 1.984375 -0.40625q0.75 -0.40625 0.75 -1.125q0 -0.5 -0.296875 -0.75q-0.28125 -0.265625 -0.71875 -0.328125q-0.4375 -0.0625 -1.265625 -0.09375l-0.828125 -0.0625q-1.078125 -0.078125 -1.796875 -0.21875q-0.71875 -0.15625 -1.265625 -0.609375q-0.53125 -0.453125 -0.53125 -1.359375q0 -1.171875 0.921875 -1.875q0.921875 -0.71875 2.46875 -0.71875q1.671875 0 2.890625 0.75zm6.693756 -2.90625l0 2.40625l4.8125 0l0 1.015625l-4.8125 0l0 4.46875q0 0.96875 0.5625 1.390625q0.5625 0.421875 1.625 0.421875q0.609375 0 1.296875 -0.1875q0.703125 -0.1875 2.34375 -0.84375l0.109375 1.0q-1.265625 0.5625 -2.21875 0.8125q-0.9375 0.234375 -1.734375 0.234375q-1.359375 0 -2.171875 -0.640625q-0.8125 -0.640625 -0.8125 -1.75l0 -4.90625l-1.328125 0l0 -1.015625l1.328125 0l0 -2.40625l1.0 0zm15.881256 0.390625l0 -0.5625l1.0 0l0 3.453125l-1.0 0l0 -1.65625q-0.484375 -0.46875 -1.1875 -0.734375q-0.703125 -0.265625 -1.4375 -0.265625q-0.828125 0 -1.5 0.28125q-0.65625 0.28125 -1.03125 0.765625q-0.375 0.484375 -0.375 1.078125q0 1.0 0.84375 1.53125q0.84375 0.53125 2.703125 0.640625q1.796875 0.109375 2.578125 0.828125q0.796875 0.71875 0.796875 1.78125q0 1.46875 -1.078125 2.328125q-1.078125 0.859375 -2.84375 0.859375q-0.984375 0 -1.875 -0.234375q-0.890625 -0.25 -1.578125 -0.71875l0 0.75l-1.03125 0l0 -3.359375l1.03125 0l0 1.453125q0.640625 0.53125 1.484375 0.8125q0.859375 0.28125 1.796875 0.28125q1.4375 0 2.25 -0.546875q0.828125 -0.546875 0.828125 -1.453125q0 -0.6875 -0.390625 -1.046875q-0.390625 -0.375 -1.109375 -0.53125q-0.703125 -0.15625 -1.875 -0.234375q-1.6875 -0.109375 -2.609375 -0.875q-0.921875 -0.765625 -0.921875 -2.015625q0 -0.90625 0.46875 -1.6875q0.484375 -0.796875 1.34375 -1.25q0.875 -0.453125 2.03125 -0.453125q0.75 0 1.46875 0.203125q0.71875 0.203125 1.21875 0.578125zm13.100006 5.984375q0 1.234375 -0.546875 2.234375q-0.546875 1.0 -1.484375 1.5625q-0.9375 0.546875 -2.0625 0.546875q-1.046875 0 -1.890625 -0.375q-0.828125 -0.390625 -1.40625 -1.125l0 3.875l2.859375 0l0 1.03125l-5.421875 0l0 -1.03125l1.546875 0l0 -9.671875l-1.546875 0l0 -1.015625l2.5625 0l0 1.296875q0.59375 -0.765625 1.453125 -1.15625q0.875 -0.390625 1.9375 -0.390625q1.140625 0 2.046875 0.578125q0.921875 0.5625 1.4375 1.53125q0.515625 0.96875 0.515625 2.109375zm-4.140625 3.328125q0.8125 0 1.53125 -0.421875q0.71875 -0.421875 1.140625 -1.171875q0.4375 -0.765625 0.4375 -1.71875q0 -0.8125 -0.34375 -1.53125q-0.34375 -0.734375 -1.046875 -1.203125q-0.703125 -0.46875 -1.703125 -0.46875q-0.921875 0 -1.65625 0.421875q-0.71875 0.421875 -1.140625 1.171875q-0.421875 0.734375 -0.421875 1.640625q0 0.921875 0.421875 1.671875q0.421875 0.75 1.140625 1.1875q0.734375 0.421875 1.640625 0.421875zm15.396881 -3.25q0 1.25 -0.578125 2.21875q-0.578125 0.96875 -1.625 1.515625q-1.046875 0.53125 -2.421875 0.53125q-1.40625 0 -2.484375 -0.53125q-1.078125 -0.546875 -1.671875 -1.515625q-0.578125 -0.96875 -0.578125 -2.21875q0 -1.265625 0.609375 -2.25q0.609375 -0.984375 1.6875 -1.515625q1.078125 -0.53125 2.46875 -0.53125q1.421875 0 2.46875 0.59375q1.046875 0.59375 1.578125 1.578125q0.546875 0.96875 0.546875 2.125zm-4.640625 3.25q1.0625 0 1.875 -0.421875q0.828125 -0.421875 1.28125 -1.140625q0.46875 -0.734375 0.46875 -1.640625q0 -0.90625 -0.421875 -1.65625q-0.421875 -0.765625 -1.25 -1.203125q-0.828125 -0.453125 -1.984375 -0.453125q-1.0625 0 -1.90625 0.4375q-0.828125 0.4375 -1.296875 1.1875q-0.453125 0.75 -0.453125 1.65625q0 0.859375 0.4375 1.609375q0.453125 0.75 1.296875 1.1875q0.84375 0.4375 1.953125 0.4375zm9.178131 -9.703125l0 2.40625l4.8125 0l0 1.015625l-4.8125 0l0 4.46875q0 0.96875 0.5625 1.390625q0.5625 0.421875 1.625 0.421875q0.609375 0 1.296875 -0.1875q0.703125 -0.1875 2.34375 -0.84375l0.109375 1.0q-1.265625 0.5625 -2.21875 0.8125q-0.9375 0.234375 -1.734375 0.234375q-1.359375 0 -2.171875 -0.640625q-0.8125 -0.640625 -0.8125 -1.75l0 -4.90625l-1.328125 0l0 -1.015625l1.328125 0l0 -2.40625l1.0 0zm13.881256 5.484375q0 1.46875 0.53125 3.140625q0.546875 1.671875 1.6875 3.6875l-0.984375 0q-1.0625 -1.65625 -1.671875 -3.546875q-0.59375 -1.890625 -0.59375 -3.578125q0 -1.40625 0.640625 -3.296875q0.640625 -1.90625 1.640625 -3.484375l1.015625 0q-1.25 2.21875 -1.765625 3.84375q-0.5 1.609375 -0.5 3.234375zm13.975006 -4.828125l-1.421875 0q-1.296875 0 -2.40625 0.578125q-1.09375 0.578125 -1.78125 1.75q-0.671875 1.171875 -0.71875 2.84375q1.1875 -1.578125 3.03125 -1.578125q0.921875 0 1.65625 0.421875q0.75 0.421875 1.15625 1.15625q0.40625 0.734375 0.40625 1.671875q0 0.921875 -0.4375 1.671875q-0.4375 0.734375 -1.203125 1.15625q-0.765625 0.421875 -1.6875 0.421875q-1.109375 0 -2.015625 -0.5625q-0.890625 -0.578125 -1.40625 -1.65625q-0.5 -1.078125 -0.5 -2.53125q0 -2.125 0.859375 -3.5625q0.875 -1.453125 2.21875 -2.140625q1.359375 -0.6875 2.828125 -0.6875l1.421875 0l0 1.046875zm-3.546875 9.0625q1.15625 0 1.8125 -0.609375q0.671875 -0.625 0.671875 -1.59375q0 -0.984375 -0.671875 -1.609375q-0.671875 -0.625 -1.75 -0.625q-0.84375 0 -1.609375 0.453125q-0.765625 0.453125 -1.1875 1.234375q0.1875 1.28125 0.90625 2.015625q0.71875 0.734375 1.828125 0.734375zm10.193741 3.1875l-1.21875 0l1.375 -4.65625l1.78125 0l-1.9375 4.65625zm13.881256 -6.453125l1.75 0l0 1.03125l-1.75 0l0 1.984375l1.75 0l0 1.03125l-4.828125 0l0 -1.03125l2.046875 0l0 -1.984375l-5.109375 0l0 -0.921875l4.640625 -6.734375l1.5 0l0 6.625zm-5.0 0l3.96875 0l0 -5.734375l-3.96875 5.734375zm13.506256 6.453125l-1.21875 0l1.375 -4.65625l1.78125 0l-1.9375 4.65625zm15.521881 -10.15625q0 0.734375 -0.203125 1.265625q-0.1875 0.515625 -0.765625 1.15625q-0.578125 0.640625 -1.78125 1.609375l-3.296875 2.6875l5.03125 0l0 -1.3125l1.015625 0l0 2.34375l-7.515625 0l0 -1.09375l4.15625 -3.265625q1.46875 -1.15625 1.90625 -1.84375q0.453125 -0.703125 0.453125 -1.296875q0 -1.03125 -0.765625 -1.703125q-0.75 -0.6875 -1.90625 -0.6875q-1.0 0 -1.703125 0.484375q-0.6875 0.484375 -0.71875 1.3125l-1.0 0l0 -1.328125q1.421875 -1.46875 3.484375 -1.46875q0.96875 0 1.796875 0.4375q0.84375 0.421875 1.328125 1.15625q0.484375 0.71875 0.484375 1.546875zm6.865631 10.15625l-1.21875 0l1.375 -4.65625l1.78125 0l-1.9375 4.65625zm15.521881 -10.15625q0 0.734375 -0.203125 1.265625q-0.1875 0.515625 -0.765625 1.15625q-0.578125 0.640625 -1.78125 1.609375l-3.296875 2.6875l5.03125 0l0 -1.3125l1.015625 0l0 2.34375l-7.515625 0l0 -1.09375l4.15625 -3.265625q1.46875 -1.15625 1.90625 -1.84375q0.453125 -0.703125 0.453125 -1.296875q0 -1.03125 -0.765625 -1.703125q-0.75 -0.6875 -1.90625 -0.6875q-1.0 0 -1.703125 0.484375q-0.6875 0.484375 -0.71875 1.3125l-1.0 0l0 -1.328125q1.421875 -1.46875 3.484375 -1.46875q0.96875 0 1.796875 0.4375q0.84375 0.421875 1.328125 1.15625q0.484375 0.71875 0.484375 1.546875zm6.865631 10.15625l-1.21875 0l1.375 -4.65625l1.78125 0l-1.9375 4.65625zm15.740631 -13.46875l-2.34375 0l0 11.84375l2.34375 0l0 1.03125l-3.375 0l0 -13.90625l3.375 0l0 1.03125zm8.115631 -0.59375l0 3.421875q0 1.15625 -0.359375 1.953125q-0.34375 0.78125 -1.078125 1.296875q0.734375 0.46875 1.078125 1.28125q0.359375 0.8125 0.359375 2.046875l0 3.359375q0 0.734375 0.390625 1.109375q0.40625 0.390625 1.375 0.453125l0 1.03125q-1.5625 -0.078125 -2.1875 -0.765625q-0.609375 -0.671875 -0.609375 -2.15625l0 -2.40625q0 -1.140625 -0.125 -1.765625q-0.125 -0.625 -0.484375 -1.0q-0.359375 -0.375 -1.0625 -0.703125l0 -0.96875q0.671875 -0.296875 1.015625 -0.671875q0.34375 -0.375 0.5 -1.015625q0.15625 -0.640625 0.15625 -1.796875l0 -2.390625q0 -1.4375 0.609375 -2.125q0.625 -0.703125 2.1875 -0.78125l0 1.015625q-0.96875 0.0625 -1.375 0.453125q-0.390625 0.375 -0.390625 1.125zm9.553131 4.578125l-0.9375 0l2.09375 2.15625l2.078125 -2.15625l-0.765625 0l0 -1.015625l3.46875 0l0 1.015625l-1.4375 0l-2.703125 2.828125l3.171875 3.21875l1.40625 0l0 1.03125l-3.859375 0l0 -1.03125l1.15625 0l-2.5 -2.5625l-2.53125 2.5625l1.1875 0l0 1.03125l-3.84375 0l0 -1.03125l1.390625 0l3.171875 -3.234375l-2.75 -2.8125l-1.46875 0l0 -1.015625l3.671875 0l0 1.015625zm13.787506 1.296875q0 0.484375 -0.375 0.8125q-0.375 0.328125 -0.890625 0.328125q-0.53125 0 -0.9375 -0.328125q-0.390625 -0.328125 -0.390625 -0.78125q0 -0.4375 0.375 -0.765625q0.390625 -0.34375 0.90625 -0.34375q0.578125 0 0.9375 0.34375q0.375 0.328125 0.375 0.734375zm0 4.90625q0 0.484375 -0.375 0.8125q-0.375 0.328125 -0.890625 0.328125q-0.53125 0 -0.9375 -0.328125q-0.390625 -0.328125 -0.390625 -0.78125q0 -0.4375 0.375 -0.765625q0.390625 -0.34375 0.90625 -0.34375q0.578125 0 0.9375 0.34375q0.375 0.328125 0.375 0.734375zm13.631256 -0.15625l0 1.03125l-7.5 0l0 -1.03125l3.296875 0l0 -8.5625l-3.296875 0.671875l0 -1.015625l4.3125 -0.953125l0 9.859375l3.1875 0zm6.334381 3.4375l-1.21875 0l1.375 -4.65625l1.78125 0l-1.9375 4.65625zm10.553131 -9.484375l-1.1875 0l2.84375 5.578125l3.109375 -5.578125l-1.046875 0l0 -1.015625l3.328125 0l0 1.015625l-1.171875 0l-5.4375 9.671875l1.578125 0l0 1.03125l-4.734375 0l0 -1.03125l2.03125 0l1.8125 -3.078125l-3.4375 -6.59375l-1.25 0l0 -1.015625l3.5625 0l0 1.015625zm14.256256 1.296875q0 0.484375 -0.375 0.8125q-0.375 0.328125 -0.890625 0.328125q-0.53125 0 -0.9375 -0.328125q-0.390625 -0.328125 -0.390625 -0.78125q0 -0.4375 0.375 -0.765625q0.390625 -0.34375 0.90625 -0.34375q0.578125 0 0.9375 0.34375q0.375 0.328125 0.375 0.734375zm0 4.90625q0 0.484375 -0.375 0.8125q-0.375 0.328125 -0.890625 0.328125q-0.53125 0 -0.9375 -0.328125q-0.390625 -0.328125 -0.390625 -0.78125q0 -0.4375 0.375 -0.765625q0.390625 -0.34375 0.90625 -0.34375q0.578125 0 0.9375 0.34375q0.375 0.328125 0.375 0.734375zm13.428131 -4.640625q0 2.921875 -0.90625 4.328125q-0.90625 1.40625 -2.671875 1.40625q-1.75 0 -2.671875 -1.484375q-0.90625 -1.484375 -0.90625 -4.09375q0 -2.5 0.890625 -4.015625q0.890625 -1.515625 2.75 -1.515625q1.671875 0 2.59375 1.421875q0.921875 1.40625 0.921875 3.953125zm-3.515625 4.71875q2.515625 0 2.515625 -4.53125q0 -4.546875 -2.59375 -4.546875q-1.21875 0 -1.890625 1.140625q-0.65625 1.125 -0.65625 3.359375q0 4.578125 2.625 4.578125zm11.615631 -10.546875l0 2.390625q0 1.15625 0.15625 1.796875q0.15625 0.640625 0.5 1.015625q0.34375 0.375 1.015625 0.671875l0 0.96875q-0.703125 0.328125 -1.0625 0.703125q-0.34375 0.375 -0.484375 1.0q-0.125 0.625 -0.125 1.765625l0 2.40625q0 1.484375 -0.625 2.15625q-0.609375 0.6875 -2.171875 0.765625l0 -1.03125q0.96875 -0.0625 1.359375 -0.453125q0.40625 -0.375 0.40625 -1.109375l0 -3.359375q0 -1.234375 0.359375 -2.046875q0.359375 -0.8125 1.078125 -1.28125q-0.71875 -0.515625 -1.078125 -1.296875q-0.359375 -0.796875 -0.359375 -1.953125l0 -3.421875q0 -0.75 -0.40625 -1.125q-0.390625 -0.390625 -1.359375 -0.453125l0 -1.015625q1.5625 0.078125 2.171875 0.78125q0.625 0.6875 0.625 2.125zm9.631256 13.75l-1.21875 0l1.375 -4.65625l1.78125 0l-1.9375 4.65625zm12.662506 -14.0625l0 3.421875q0 1.15625 -0.359375 1.953125q-0.34375 0.78125 -1.078125 1.296875q0.734375 0.46875 1.078125 1.28125q0.359375 0.8125 0.359375 2.046875l0 3.359375q0 0.734375 0.390625 1.109375q0.40625 0.390625 1.375 0.453125l0 1.03125q-1.5625 -0.078125 -2.1875 -0.765625q-0.609375 -0.671875 -0.609375 -2.15625l0 -2.40625q0 -1.140625 -0.125 -1.765625q-0.125 -0.625 -0.484375 -1.0q-0.359375 -0.375 -1.0625 -0.703125l0 -0.96875q0.671875 -0.296875 1.015625 -0.671875q0.34375 -0.375 0.5 -1.015625q0.15625 -0.640625 0.15625 -1.796875l0 -2.390625q0 -1.4375 0.609375 -2.125q0.625 -0.703125 2.1875 -0.78125l0 1.015625q-0.96875 0.0625 -1.375 0.453125q-0.390625 0.375 -0.390625 1.125zm9.553131 4.578125l-0.9375 0l2.09375 2.15625l2.078125 -2.15625l-0.765625 0l0 -1.015625l3.46875 0l0 1.015625l-1.4375 0l-2.703125 2.828125l3.171875 3.21875l1.40625 0l0 1.03125l-3.859375 0l0 -1.03125l1.15625 0l-2.5 -2.5625l-2.53125 2.5625l1.1875 0l0 1.03125l-3.84375 0l0 -1.03125l1.390625 0l3.171875 -3.234375l-2.75 -2.8125l-1.46875 0l0 -1.015625l3.671875 0l0 1.015625zm13.787506 1.296875q0 0.484375 -0.375 0.8125q-0.375 0.328125 -0.890625 0.328125q-0.53125 0 -0.9375 -0.328125q-0.390625 -0.328125 -0.390625 -0.78125q0 -0.4375 0.375 -0.765625q0.390625 -0.34375 0.90625 -0.34375q0.578125 0 0.9375 0.34375q0.375 0.328125 0.375 0.734375zm0 4.90625q0 0.484375 -0.375 0.8125q-0.375 0.328125 -0.890625 0.328125q-0.53125 0 -0.9375 -0.328125q-0.390625 -0.328125 -0.390625 -0.78125q0 -0.4375 0.375 -0.765625q0.390625 -0.34375 0.90625 -0.34375q0.578125 0 0.9375 0.34375q0.375 0.328125 0.375 0.734375zm12.928131 -8.765625l-5.421875 0l0 3.65625q1.109375 -0.5625 2.421875 -0.5625q1.046875 0 1.859375 0.4375q0.828125 0.4375 1.265625 1.203125q0.453125 0.765625 0.453125 1.71875q0 0.890625 -0.46875 1.671875q-0.453125 0.78125 -1.359375 1.265625q-0.890625 0.46875 -2.203125 0.46875q-0.75 0 -1.609375 -0.171875q-0.859375 -0.15625 -2.015625 -0.546875l0.21875 -1.03125q1.828125 0.734375 3.3125 0.734375q1.40625 0 2.265625 -0.65625q0.859375 -0.65625 0.859375 -1.703125q0 -0.65625 -0.375 -1.1875q-0.359375 -0.546875 -1.015625 -0.859375q-0.65625 -0.3125 -1.484375 -0.3125q-1.25 0 -2.4375 0.703125l-0.71875 -0.171875l0 -5.6875l6.453125 0l0 1.03125zm7.037506 12.046875l-1.21875 0l1.375 -4.65625l1.78125 0l-1.9375 4.65625zm10.553162 -9.484375l-1.1875 0l2.84375 5.578125l3.109375 -5.578125l-1.046875 0l0 -1.015625l3.328125 0l0 1.015625l-1.171875 0l-5.4375 9.671875l1.578125 0l0 1.03125l-4.734375 0l0 -1.03125l2.03125 0l1.8125 -3.078125l-3.4375 -6.59375l-1.25 0l0 -1.015625l3.5625 0l0 1.015625zm14.256226 1.296875q0 0.484375 -0.375 0.8125q-0.375 0.328125 -0.890625 0.328125q-0.53125 0 -0.9375 -0.328125q-0.390625 -0.328125 -0.390625 -0.78125q0 -0.4375 0.375 -0.765625q0.390625 -0.34375 0.90625 -0.34375q0.578125 0 0.9375 0.34375q0.375 0.328125 0.375 0.734375zm0 4.90625q0 0.484375 -0.375 0.8125q-0.375 0.328125 -0.890625 0.328125q-0.53125 0 -0.9375 -0.328125q-0.390625 -0.328125 -0.390625 -0.78125q0 -0.4375 0.375 -0.765625q0.390625 -0.34375 0.90625 -0.34375q0.578125 0 0.9375 0.34375q0.375 0.328125 0.375 0.734375zm13.428162 -4.640625q0 2.921875 -0.90625 4.328125q-0.90625 1.40625 -2.671875 1.40625q-1.75 0 -2.671875 -1.484375q-0.90625 -1.484375 -0.90625 -4.09375q0 -2.5 0.890625 -4.015625q0.890625 -1.515625 2.75 -1.515625q1.671875 0 2.59375 1.421875q0.921875 1.40625 0.921875 3.953125zm-3.515625 4.71875q2.515625 0 2.515625 -4.53125q0 -4.546875 -2.59375 -4.546875q-1.21875 0 -1.890625 1.140625q-0.65625 1.125 -0.65625 3.359375q0 4.578125 2.625 4.578125zm11.615601 -10.546875l0 2.390625q0 1.15625 0.15625 1.796875q0.15625 0.640625 0.5 1.015625q0.34375 0.375 1.015625 0.671875l0 0.96875q-0.703125 0.328125 -1.0625 0.703125q-0.34375 0.375 -0.484375 1.0q-0.125 0.625 -0.125 1.765625l0 2.40625q0 1.484375 -0.625 2.15625q-0.609375 0.6875 -2.171875 0.765625l0 -1.03125q0.96875 -0.0625 1.359375 -0.453125q0.40625 -0.375 0.40625 -1.109375l0 -3.359375q0 -1.234375 0.359375 -2.046875q0.359375 -0.8125 1.078125 -1.28125q-0.71875 -0.515625 -1.078125 -1.296875q-0.359375 -0.796875 -0.359375 -1.953125l0 -3.421875q0 -0.75 -0.40625 -1.125q-0.390625 -0.390625 -1.359375 -0.453125l0 -1.015625q1.5625 0.078125 2.171875 0.78125q0.625 0.6875 0.625 2.125zm9.631287 13.75l-1.21875 0l1.375 -4.65625l1.78125 0l-1.9375 4.65625zm12.662476 -14.0625l0 3.421875q0 1.15625 -0.359375 1.953125q-0.34375 0.78125 -1.078125 1.296875q0.734375 0.46875 1.078125 1.28125q0.359375 0.8125 0.359375 2.046875l0 3.359375q0 0.734375 0.390625 1.109375q0.40625 0.390625 1.375 0.453125l0 1.03125q-1.5625 -0.078125 -2.1875 -0.765625q-0.609375 -0.671875 -0.609375 -2.15625l0 -2.40625q0 -1.140625 -0.125 -1.765625q-0.125 -0.625 -0.484375 -1.0q-0.359375 -0.375 -1.0625 -0.703125l0 -0.96875q0.671875 -0.296875 1.015625 -0.671875q0.34375 -0.375 0.5 -1.015625q0.15625 -0.640625 0.15625 -1.796875l0 -2.390625q0 -1.4375 0.609375 -2.125q0.625 -0.703125 2.1875 -0.78125l0 1.015625q-0.96875 0.0625 -1.375 0.453125q-0.390625 0.375 -0.390625 1.125zm9.553162 4.578125l-0.9375 0l2.09375 2.15625l2.078125 -2.15625l-0.765625 0l0 -1.015625l3.46875 0l0 1.015625l-1.4375 0l-2.703125 2.828125l3.171875 3.21875l1.40625 0l0 1.03125l-3.859375 0l0 -1.03125l1.15625 0l-2.5 -2.5625l-2.53125 2.5625l1.1875 0l0 1.03125l-3.84375 0l0 -1.03125l1.390625 0l3.171875 -3.234375l-2.75 -2.8125l-1.46875 0l0 -1.015625l3.671875 0l0 1.015625zm13.787476 1.296875q0 0.484375 -0.375 0.8125q-0.375 0.328125 -0.890625 0.328125q-0.53125 0 -0.9375 -0.328125q-0.390625 -0.328125 -0.390625 -0.78125q0 -0.4375 0.375 -0.765625q0.390625 -0.34375 0.90625 -0.34375q0.578125 0 0.9375 0.34375q0.375 0.328125 0.375 0.734375zm0 4.90625q0 0.484375 -0.375 0.8125q-0.375 0.328125 -0.890625 0.328125q-0.53125 0 -0.9375 -0.328125q-0.390625 -0.328125 -0.390625 -0.78125q0 -0.4375 0.375 -0.765625q0.390625 -0.34375 0.90625 -0.34375q0.578125 0 0.9375 0.34375q0.375 0.328125 0.375 0.734375zm13.099976 -6.875q0 0.734375 -0.203125 1.265625q-0.1875 0.515625 -0.765625 1.15625q-0.578125 0.640625 -1.78125 1.609375l-3.296875 2.6875l5.03125 0l0 -1.3125l1.015625 0l0 2.34375l-7.515625 0l0 -1.09375l4.15625 -3.265625q1.46875 -1.15625 1.90625 -1.84375q0.453125 -0.703125 0.453125 -1.296875q0 -1.03125 -0.765625 -1.703125q-0.75 -0.6875 -1.90625 -0.6875q-1.0 0 -1.703125 0.484375q-0.6875 0.484375 -0.71875 1.3125l-1.0 0l0 -1.328125q1.421875 -1.46875 3.484375 -1.46875q0.96875 0 1.796875 0.4375q0.84375 0.421875 1.328125 1.15625q0.484375 0.71875 0.484375 1.546875zm6.8656616 10.15625l-1.21875 0l1.375 -4.65625l1.78125 0l-1.9375 4.65625zm10.553162 -9.484375l-1.1875 0l2.84375 5.578125l3.109375 -5.578125l-1.046875 0l0 -1.015625l3.328125 0l0 1.015625l-1.171875 0l-5.4375 9.671875l1.578125 0l0 1.03125l-4.734375 0l0 -1.03125l2.03125 0l1.8125 -3.078125l-3.4375 -6.59375l-1.25 0l0 -1.015625l3.5625 0l0 1.015625zm14.256226 1.296875q0 0.484375 -0.375 0.8125q-0.375 0.328125 -0.890625 0.328125q-0.53125 0 -0.9375 -0.328125q-0.390625 -0.328125 -0.390625 -0.78125q0 -0.4375 0.375 -0.765625q0.390625 -0.34375 0.90625 -0.34375q0.578125 0 0.9375 0.34375q0.375 0.328125 0.375 0.734375zm0 4.90625q0 0.484375 -0.375 0.8125q-0.375 0.328125 -0.890625 0.328125q-0.53125 0 -0.9375 -0.328125q-0.390625 -0.328125 -0.390625 -0.78125q0 -0.4375 0.375 -0.765625q0.390625 -0.34375 0.90625 -0.34375q0.578125 0 0.9375 0.34375q0.375 0.328125 0.375 0.734375zm13.099976 -6.875q0 0.734375 -0.203125 1.265625q-0.1875 0.515625 -0.765625 1.15625q-0.578125 0.640625 -1.78125 1.609375l-3.296875 2.6875l5.03125 0l0 -1.3125l1.015625 0l0 2.34375l-7.515625 0l0 -1.09375l4.15625 -3.265625q1.46875 -1.15625 1.90625 -1.84375q0.453125 -0.703125 0.453125 -1.296875q0 -1.03125 -0.765625 -1.703125q-0.75 -0.6875 -1.90625 -0.6875q-1.0 0 -1.703125 0.484375q-0.6875 0.484375 -0.71875 1.3125l-1.0 0l0 -1.328125q1.421875 -1.46875 3.484375 -1.46875q0.96875 0 1.796875 0.4375q0.84375 0.421875 1.328125 1.15625q0.484375 0.71875 0.484375 1.546875zm8.428101 -3.59375l0 2.390625q0 1.15625 0.15625 1.796875q0.15625 0.640625 0.5 1.015625q0.34375 0.375 1.015625 0.671875l0 0.96875q-0.703125 0.328125 -1.0625 0.703125q-0.34375 0.375 -0.484375 1.0q-0.125 0.625 -0.125 1.765625l0 2.40625q0 1.484375 -0.625 2.15625q-0.609375 0.6875 -2.171875 0.765625l0 -1.03125q0.96875 -0.0625 1.359375 -0.453125q0.40625 -0.375 0.40625 -1.109375l0 -3.359375q0 -1.234375 0.359375 -2.046875q0.359375 -0.8125 1.078125 -1.28125q-0.71875 -0.515625 -1.078125 -1.296875q-0.359375 -0.796875 -0.359375 -1.953125l0 -3.421875q0 -0.75 -0.40625 -1.125q-0.390625 -0.390625 -1.359375 -0.453125l0 -1.015625q1.5625 0.078125 2.171875 0.78125q0.625 0.6875 0.625 2.125zm9.631226 13.75l-1.21875 0l1.375 -4.65625l1.78125 0l-1.9375 4.65625zm12.662476 -14.0625l0 3.421875q0 1.15625 -0.359375 1.953125q-0.34375 0.78125 -1.078125 1.296875q0.734375 0.46875 1.078125 1.28125q0.359375 0.8125 0.359375 2.046875l0 3.359375q0 0.734375 0.390625 1.109375q0.40625 0.390625 1.375 0.453125l0 1.03125q-1.5625 -0.078125 -2.1875 -0.765625q-0.609375 -0.671875 -0.609375 -2.15625l0 -2.40625q0 -1.140625 -0.125 -1.765625q-0.125 -0.625 -0.484375 -1.0q-0.359375 -0.375 -1.0625 -0.703125l0 -0.96875q0.671875 -0.296875 1.015625 -0.671875q0.34375 -0.375 0.5 -1.015625q0.15625 -0.640625 0.15625 -1.796875l0 -2.390625q0 -1.4375 0.609375 -2.125q0.625 -0.703125 2.1875 -0.78125l0 1.015625q-0.96875 0.0625 -1.375 0.453125q-0.390625 0.375 -0.390625 1.125zm9.553101 4.578125l-0.9375 0l2.09375 2.15625l2.078125 -2.15625l-0.765625 0l0 -1.015625l3.46875 0l0 1.015625l-1.4375 0l-2.703125 2.828125l3.171875 3.21875l1.40625 0l0 1.03125l-3.859375 0l0 -1.03125l1.15625 0l-2.5 -2.5625l-2.53125 2.5625l1.1875 0l0 1.03125l-3.84375 0l0 -1.03125l1.390625 0l3.171875 -3.234375l-2.75 -2.8125l-1.46875 0l0 -1.015625l3.671875 0l0 1.015625zm13.787476 1.296875q0 0.484375 -0.375 0.8125q-0.375 0.328125 -0.890625 0.328125q-0.53125 0 -0.9375 -0.328125q-0.390625 -0.328125 -0.390625 -0.78125q0 -0.4375 0.375 -0.765625q0.390625 -0.34375 0.90625 -0.34375q0.578125 0 0.9375 0.34375q0.375 0.328125 0.375 0.734375zm0 4.90625q0 0.484375 -0.375 0.8125q-0.375 0.328125 -0.890625 0.328125q-0.53125 0 -0.9375 -0.328125q-0.390625 -0.328125 -0.390625 -0.78125q0 -0.4375 0.375 -0.765625q0.390625 -0.34375 0.90625 -0.34375q0.578125 0 0.9375 0.34375q0.375 0.328125 0.375 0.734375zm12.349976 -7.109375q0 0.828125 -0.328125 1.390625q-0.3125 0.5625 -1.125 1.125q0.984375 0.25 1.53125 0.921875q0.5625 0.671875 0.5625 1.671875q0 0.9375 -0.515625 1.640625q-0.5 0.6875 -1.359375 1.078125q-0.859375 0.375 -1.859375 0.375q-1.6875 0 -3.5625 -0.8125l0.25 -0.875q1.828125 0.671875 3.109375 0.671875q1.296875 0 2.109375 -0.59375q0.828125 -0.609375 0.828125 -1.515625q0 -0.765625 -0.703125 -1.34375q-0.6875 -0.578125 -2.265625 -0.578125l-0.484375 0l0 -1.03125q1.328125 0 2.0625 -0.59375q0.734375 -0.59375 0.734375 -1.5q0 -0.828125 -0.640625 -1.375q-0.625 -0.5625 -1.6875 -0.5625q-1.265625 0 -2.734375 0.875l-0.34375 -0.8125q1.640625 -1.0625 3.34375 -1.0625q0.8125 0 1.515625 0.359375q0.71875 0.359375 1.140625 1.03125q0.421875 0.65625 0.421875 1.515625zm7.6156006 10.390625l-1.21875 0l1.375 -4.65625l1.78125 0l-1.9375 4.65625zm10.553101 -9.484375l-1.1875 0l2.84375 5.578125l3.109375 -5.578125l-1.046875 0l0 -1.015625l3.328125 0l0 1.015625l-1.171875 0l-5.4375 9.671875l1.578125 0l0 1.03125l-4.734375 0l0 -1.03125l2.03125 0l1.8125 -3.078125l-3.4375 -6.59375l-1.25 0l0 -1.015625l3.5625 0l0 1.015625zm14.256226 1.296875q0 0.484375 -0.375 0.8125q-0.375 0.328125 -0.890625 0.328125q-0.53125 0 -0.9375 -0.328125q-0.390625 -0.328125 -0.390625 -0.78125q0 -0.4375 0.375 -0.765625q0.390625 -0.34375 0.90625 -0.34375q0.578125 0 0.9375 0.34375q0.375 0.328125 0.375 0.734375zm0 4.90625q0 0.484375 -0.375 0.8125q-0.375 0.328125 -0.890625 0.328125q-0.53125 0 -0.9375 -0.328125q-0.390625 -0.328125 -0.390625 -0.78125q0 -0.4375 0.375 -0.765625q0.390625 -0.34375 0.90625 -0.34375q0.578125 0 0.9375 0.34375q0.375 0.328125 0.375 0.734375zm12.349976 -7.109375q0 0.828125 -0.328125 1.390625q-0.3125 0.5625 -1.125 1.125q0.984375 0.25 1.53125 0.921875q0.5625 0.671875 0.5625 1.671875q0 0.9375 -0.515625 1.640625q-0.5 0.6875 -1.359375 1.078125q-0.859375 0.375 -1.859375 0.375q-1.6875 0 -3.5625 -0.8125l0.25 -0.875q1.828125 0.671875 3.109375 0.671875q1.296875 0 2.109375 -0.59375q0.828125 -0.609375 0.828125 -1.515625q0 -0.765625 -0.703125 -1.34375q-0.6875 -0.578125 -2.265625 -0.578125l-0.484375 0l0 -1.03125q1.328125 0 2.0625 -0.59375q0.734375 -0.59375 0.734375 -1.5q0 -0.828125 -0.640625 -1.375q-0.625 -0.5625 -1.6875 -0.5625q-1.265625 0 -2.734375 0.875l-0.34375 -0.8125q1.640625 -1.0625 3.34375 -1.0625q0.8125 0 1.515625 0.359375q0.71875 0.359375 1.140625 1.03125q0.421875 0.65625 0.421875 1.515625zm9.178101 -3.359375l0 2.390625q0 1.15625 0.15625 1.796875q0.15625 0.640625 0.5 1.015625q0.34375 0.375 1.015625 0.671875l0 0.96875q-0.703125 0.328125 -1.0625 0.703125q-0.34375 0.375 -0.484375 1.0q-0.125 0.625 -0.125 1.765625l0 2.40625q0 1.484375 -0.625 2.15625q-0.609375 0.6875 -2.171875 0.765625l0 -1.03125q0.96875 -0.0625 1.359375 -0.453125q0.40625 -0.375 0.40625 -1.109375l0 -3.359375q0 -1.234375 0.359375 -2.046875q0.359375 -0.8125 1.078125 -1.28125q-0.71875 -0.515625 -1.078125 -1.296875q-0.359375 -0.796875 -0.359375 -1.953125l0 -3.421875q0 -0.75 -0.40625 -1.125q-0.390625 -0.390625 -1.359375 -0.453125l0 -1.015625q1.5625 0.078125 2.171875 0.78125q0.625 0.6875 0.625 2.125zm10.506226 13.15625l-3.375 0l0 -1.03125l2.34375 0l0 -11.84375l-2.34375 0l0 -1.03125l3.375 0l0 13.90625zm11.615601 -7.125q0 1.6875 -0.59375 3.578125q-0.59375 1.890625 -1.65625 3.546875l-0.984375 0q1.125 -2.015625 1.671875 -3.6875q0.546875 -1.671875 0.546875 -3.140625q0 -1.625 -0.515625 -3.234375q-0.5 -1.625 -1.75 -3.84375l1.015625 0q1.0 1.578125 1.625 3.484375q0.640625 1.890625 0.640625 3.296875z" fill-rule="nonzero"/><path fill="#000000" fill-opacity="0.0" d="m97.92126 426.63254l764.1575 0l0 30.48819l-764.1575 0z" fill-rule="evenodd"/><path fill="#000000" d="m116.51501 448.5838l-8.015625 0l0 -1.015625l8.015625 0l0 1.015625zm0 2.921875l-8.015625 0l0 -1.015625l8.015625 0l0 1.015625zm18.85627 -9.609375l0 3.421875q0 1.15625 -0.359375 1.953125q-0.34375 0.78125 -1.078125 1.296875q0.734375 0.46875 1.078125 1.28125q0.359375 0.8125 0.359375 2.046875l0 3.359375q0 0.734375 0.390625 1.109375q0.40625 0.390625 1.375 0.453125l0 1.03125q-1.5625 -0.078125 -2.1875 -0.765625q-0.609375 -0.671875 -0.609375 -2.15625l0 -2.40625q0 -1.140625 -0.125 -1.765625q-0.125 -0.625 -0.484375 -1.0q-0.359375 -0.375 -1.0625 -0.703125l0 -0.96875q0.671875 -0.296875 1.015625 -0.671875q0.34375 -0.375 0.5 -1.015625q0.15625 -0.640625 0.15625 -1.796875l0 -2.390625q0 -1.4375 0.609375 -2.125q0.625 -0.703125 2.1875 -0.78125l0 1.015625q-0.96875 0.0625 -1.375 0.453125q-0.390625 0.375 -0.390625 1.125zm13.818756 4.21875l0 -0.90625l1.03125 0l0 3.265625l-1.03125 0l0 -1.28125q-1.125 -0.9375 -2.84375 -0.9375q-1.0 0 -1.796875 0.4375q-0.78125 0.421875 -1.234375 1.15625q-0.4375 0.71875 -0.4375 1.59375q0 0.90625 0.421875 1.65625q0.4375 0.75 1.265625 1.21875q0.84375 0.453125 2.015625 0.453125q0.8125 0 1.734375 -0.40625q0.921875 -0.421875 1.703125 -1.09375l0.40625 1.03125q-1.921875 1.46875 -4.15625 1.46875q-1.25 0 -2.265625 -0.546875q-1.0 -0.5625 -1.578125 -1.5625q-0.578125 -1.0 -0.578125 -2.265625q0 -1.0625 0.546875 -2.015625q0.546875 -0.96875 1.546875 -1.5625q1.0 -0.609375 2.265625 -0.609375q0.9375 0 1.5625 0.203125q0.640625 0.1875 1.421875 0.703125zm12.834381 3.390625q0 1.25 -0.578125 2.21875q-0.578125 0.96875 -1.625 1.515625q-1.046875 0.53125 -2.421875 0.53125q-1.40625 0 -2.484375 -0.53125q-1.078125 -0.546875 -1.671875 -1.515625q-0.578125 -0.96875 -0.578125 -2.21875q0 -1.265625 0.609375 -2.25q0.609375 -0.984375 1.6875 -1.515625q1.078125 -0.53125 2.46875 -0.53125q1.421875 0 2.46875 0.59375q1.046875 0.59375 1.578125 1.578125q0.546875 0.96875 0.546875 2.125zm-4.640625 3.25q1.0625 0 1.875 -0.421875q0.828125 -0.421875 1.28125 -1.140625q0.46875 -0.734375 0.46875 -1.640625q0 -0.90625 -0.421875 -1.65625q-0.421875 -0.765625 -1.25 -1.203125q-0.828125 -0.453125 -1.984375 -0.453125q-1.0625 0 -1.90625 0.4375q-0.828125 0.4375 -1.296875 1.1875q-0.453125 0.75 -0.453125 1.65625q0 0.859375 0.4375 1.609375q0.453125 0.75 1.296875 1.1875q0.84375 0.4375 1.953125 0.4375zm15.834381 -3.25q0 1.25 -0.578125 2.21875q-0.578125 0.96875 -1.625 1.515625q-1.046875 0.53125 -2.421875 0.53125q-1.40625 0 -2.484375 -0.53125q-1.078125 -0.546875 -1.671875 -1.515625q-0.578125 -0.96875 -0.578125 -2.21875q0 -1.265625 0.609375 -2.25q0.609375 -0.984375 1.6875 -1.515625q1.078125 -0.53125 2.46875 -0.53125q1.421875 0 2.46875 0.59375q1.046875 0.59375 1.578125 1.578125q0.546875 0.96875 0.546875 2.125zm-4.640625 3.25q1.0625 0 1.875 -0.421875q0.828125 -0.421875 1.28125 -1.140625q0.46875 -0.734375 0.46875 -1.640625q0 -0.90625 -0.421875 -1.65625q-0.421875 -0.765625 -1.25 -1.203125q-0.828125 -0.453125 -1.984375 -0.453125q-1.0625 0 -1.90625 0.4375q-0.828125 0.4375 -1.296875 1.1875q-0.453125 0.75 -0.453125 1.65625q0 0.859375 0.4375 1.609375q0.453125 0.75 1.296875 1.1875q0.84375 0.4375 1.953125 0.4375zm16.100006 -5.875l-1.0 0.09375q-0.078125 -0.40625 -0.3125 -0.578125q-0.234375 -0.171875 -0.71875 -0.171875q-0.734375 0 -1.5 0.53125q-0.75 0.515625 -2.328125 2.015625l0 3.75l3.625 0l0 1.03125l-6.984375 0l0 -1.03125l2.34375 0l0 -6.046875l-2.34375 0l0 -1.015625l3.359375 0l0 2.15625l0.921875 -0.8125q0.984375 -0.90625 1.734375 -1.25q0.75 -0.34375 1.515625 -0.34375q0.75 0 1.15625 0.40625q0.421875 0.40625 0.53125 1.265625zm9.990631 5.640625l1.484375 0l0 1.03125l-2.5 0l0 -1.421875q-0.546875 0.78125 -1.40625 1.21875q-0.84375 0.421875 -1.859375 0.421875q-1.234375 0 -2.171875 -0.5625q-0.9375 -0.578125 -1.46875 -1.546875q-0.515625 -0.984375 -0.515625 -2.171875q0 -1.21875 0.53125 -2.1875q0.546875 -0.96875 1.5 -1.53125q0.96875 -0.5625 2.203125 -0.5625q2.046875 0 3.1875 1.453125l0 -3.78125l-2.53125 0l0 -1.03125l3.546875 0l0 10.671875zm-4.265625 0.234375q0.921875 0 1.640625 -0.421875q0.71875 -0.4375 1.109375 -1.1875q0.40625 -0.765625 0.40625 -1.734375q0 -1.421875 -0.828125 -2.296875q-0.828125 -0.875 -2.34375 -0.875q-0.875 0 -1.59375 0.4375q-0.71875 0.4375 -1.125 1.1875q-0.40625 0.75 -0.40625 1.625q0 0.875 0.390625 1.625q0.390625 0.734375 1.109375 1.1875q0.71875 0.453125 1.640625 0.453125zm12.287506 -9.109375l-1.328125 0l0 -2.296875l1.328125 0l0 2.296875zm0 8.875l3.21875 0l0 1.03125l-7.53125 0l0 -1.03125l3.28125 0l0 -6.046875l-2.84375 0l0 -1.015625l3.875 0l0 7.0625zm14.193756 -4.84375l0 4.84375l1.53125 0l0 1.03125l-4.078125 0l0 -1.03125l1.53125 0l0 -4.8125q0 -0.6875 -0.46875 -1.078125q-0.453125 -0.390625 -1.375 -0.390625q-0.796875 0 -1.703125 0.4375q-0.890625 0.4375 -1.484375 1.078125l0 4.765625l1.546875 0l0 1.03125l-4.109375 0l0 -1.03125l1.5625 0l0 -6.015625l-1.5625 0l0 -1.046875l2.5625 0l0 1.171875q0.765625 -0.6875 1.671875 -1.046875q0.90625 -0.375 1.8125 -0.375q2.5625 0 2.5625 2.46875zm10.740631 0.265625l0 4.578125l1.53125 0l0 1.03125l-2.515625 0l0 -1.5625q-1.84375 1.78125 -3.734375 1.78125q-0.84375 0 -1.53125 -0.34375q-0.671875 -0.34375 -1.0625 -0.921875q-0.375 -0.578125 -0.375 -1.25q0 -0.71875 0.46875 -1.34375q0.46875 -0.625 1.390625 -1.0q0.921875 -0.375 2.1875 -0.375q0.953125 0 2.640625 0.265625l0 -0.640625q0 -1.0625 -0.578125 -1.484375q-0.578125 -0.421875 -1.8125 -0.421875q-0.734375 0 -1.609375 0.21875q-0.859375 0.21875 -1.59375 0.5625l-0.265625 -1.0q2.015625 -0.828125 3.640625 -0.828125q1.546875 0 2.375 0.671875q0.84375 0.671875 0.84375 2.0625zm-4.703125 4.8125q2.015625 0 3.703125 -2.0l0 -0.9375q-1.40625 -0.234375 -2.609375 -0.234375q-1.625 0 -2.328125 0.5q-0.703125 0.5 -0.703125 1.1875q0 0.578125 0.578125 1.03125q0.578125 0.453125 1.359375 0.453125zm10.803131 -9.703125l0 2.40625l4.8125 0l0 1.015625l-4.8125 0l0 4.46875q0 0.96875 0.5625 1.390625q0.5625 0.421875 1.625 0.421875q0.609375 0 1.296875 -0.1875q0.703125 -0.1875 2.34375 -0.84375l0.109375 1.0q-1.265625 0.5625 -2.21875 0.8125q-0.9375 0.234375 -1.734375 0.234375q-1.359375 0 -2.171875 -0.640625q-0.8125 -0.640625 -0.8125 -1.75l0 -4.90625l-1.328125 0l0 -1.015625l1.328125 0l0 -2.40625l1.0 0zm17.412506 6.578125l-7.65625 0q0.015625 1.296875 0.8125 2.21875q0.796875 0.921875 2.734375 0.921875q0.84375 0 1.890625 -0.3125q1.046875 -0.3125 2.015625 -0.84375l0.3125 0.984375q-1.046875 0.5625 -2.15625 0.875q-1.109375 0.296875 -2.109375 0.296875q-2.15625 0 -3.359375 -1.15625q-1.203125 -1.171875 -1.203125 -3.109375q0 -1.25 0.578125 -2.21875q0.59375 -0.984375 1.609375 -1.53125q1.03125 -0.546875 2.28125 -0.546875q1.96875 0 3.09375 1.1875q1.140625 1.171875 1.15625 3.234375zm-4.28125 -3.375q-1.3125 0 -2.234375 0.65625q-0.90625 0.65625 -1.09375 1.703125l6.5 0q-0.109375 -1.015625 -0.96875 -1.6875q-0.859375 -0.671875 -2.203125 -0.671875zm13.756256 -0.296875l0 -0.75l1.0 0l0 2.953125l-1.0 0l0 -1.109375q-0.640625 -0.390625 -1.375 -0.59375q-0.734375 -0.21875 -1.46875 -0.21875q-1.0625 0 -1.75 0.375q-0.6875 0.375 -0.6875 1.03125q0 0.6875 0.796875 1.03125q0.796875 0.328125 2.671875 0.34375q1.265625 0.015625 1.984375 0.265625q0.71875 0.234375 1.0 0.671875q0.28125 0.4375 0.28125 1.15625q0 1.203125 -0.984375 1.9375q-0.984375 0.71875 -2.5625 0.71875q-0.859375 0 -1.609375 -0.171875q-0.734375 -0.171875 -1.703125 -0.65625l0 0.828125l-1.03125 0l0 -3.171875l1.03125 0l0 1.109375q1.359375 1.046875 3.09375 1.046875q1.234375 0 1.984375 -0.40625q0.75 -0.40625 0.75 -1.125q0 -0.5 -0.296875 -0.75q-0.28125 -0.265625 -0.71875 -0.328125q-0.4375 -0.0625 -1.265625 -0.09375l-0.828125 -0.0625q-1.078125 -0.078125 -1.796875 -0.21875q-0.71875 -0.15625 -1.265625 -0.609375q-0.53125 -0.453125 -0.53125 -1.359375q0 -1.171875 0.921875 -1.875q0.921875 -0.71875 2.46875 -0.71875q1.671875 0 2.890625 0.75zm10.037506 1.8125q0 0.484375 -0.375 0.8125q-0.375 0.328125 -0.890625 0.328125q-0.53125 0 -0.9375 -0.328125q-0.390625 -0.328125 -0.390625 -0.78125q0 -0.4375 0.375 -0.765625q0.390625 -0.34375 0.90625 -0.34375q0.578125 0 0.9375 0.34375q0.375 0.328125 0.375 0.734375zm0 4.90625q0 0.484375 -0.375 0.8125q-0.375 0.328125 -0.890625 0.328125q-0.53125 0 -0.9375 -0.328125q-0.390625 -0.328125 -0.390625 -0.78125q0 -0.4375 0.375 -0.765625q0.390625 -0.34375 0.90625 -0.34375q0.578125 0 0.9375 0.34375q0.375 0.328125 0.375 0.734375zm10.240631 -10.78125l0 3.421875q0 1.15625 -0.359375 1.953125q-0.34375 0.78125 -1.078125 1.296875q0.734375 0.46875 1.078125 1.28125q0.359375 0.8125 0.359375 2.046875l0 3.359375q0 0.734375 0.390625 1.109375q0.40625 0.390625 1.375 0.453125l0 1.03125q-1.5625 -0.078125 -2.1875 -0.765625q-0.609375 -0.671875 -0.609375 -2.15625l0 -2.40625q0 -1.140625 -0.125 -1.765625q-0.125 -0.625 -0.484375 -1.0q-0.359375 -0.375 -1.0625 -0.703125l0 -0.96875q0.671875 -0.296875 1.015625 -0.671875q0.34375 -0.375 0.5 -1.015625q0.15625 -0.640625 0.15625 -1.796875l0 -2.390625q0 -1.4375 0.609375 -2.125q0.625 -0.703125 2.1875 -0.78125l0 1.015625q-0.96875 0.0625 -1.375 0.453125q-0.390625 0.375 -0.390625 1.125zm9.553131 4.578125l-0.9375 0l2.09375 2.15625l2.078125 -2.15625l-0.765625 0l0 -1.015625l3.46875 0l0 1.015625l-1.4375 0l-2.703125 2.828125l3.171875 3.21875l1.40625 0l0 1.03125l-3.859375 0l0 -1.03125l1.15625 0l-2.5 -2.5625l-2.53125 2.5625l1.1875 0l0 1.03125l-3.84375 0l0 -1.03125l1.390625 0l3.171875 -3.234375l-2.75 -2.8125l-1.46875 0l0 -1.015625l3.671875 0l0 1.015625zm13.787506 1.296875q0 0.484375 -0.375 0.8125q-0.375 0.328125 -0.890625 0.328125q-0.53125 0 -0.9375 -0.328125q-0.390625 -0.328125 -0.390625 -0.78125q0 -0.4375 0.375 -0.765625q0.390625 -0.34375 0.90625 -0.34375q0.578125 0 0.9375 0.34375q0.375 0.328125 0.375 0.734375zm0 4.90625q0 0.484375 -0.375 0.8125q-0.375 0.328125 -0.890625 0.328125q-0.53125 0 -0.9375 -0.328125q-0.390625 -0.328125 -0.390625 -0.78125q0 -0.4375 0.375 -0.765625q0.390625 -0.34375 0.90625 -0.34375q0.578125 0 0.9375 0.34375q0.375 0.328125 0.375 0.734375zm13.100006 -6.875q0 0.734375 -0.203125 1.265625q-0.1875 0.515625 -0.765625 1.15625q-0.578125 0.640625 -1.78125 1.609375l-3.296875 2.6875l5.03125 0l0 -1.3125l1.015625 0l0 2.34375l-7.515625 0l0 -1.09375l4.15625 -3.265625q1.46875 -1.15625 1.90625 -1.84375q0.453125 -0.703125 0.453125 -1.296875q0 -1.03125 -0.765625 -1.703125q-0.75 -0.6875 -1.90625 -0.6875q-1.0 0 -1.703125 0.484375q-0.6875 0.484375 -0.71875 1.3125l-1.0 0l0 -1.328125q1.421875 -1.46875 3.484375 -1.46875q0.96875 0 1.796875 0.4375q0.84375 0.421875 1.328125 1.15625q0.484375 0.71875 0.484375 1.546875zm6.865631 10.15625l-1.21875 0l1.375 -4.65625l1.78125 0l-1.9375 4.65625zm10.553131 -9.484375l-1.1875 0l2.84375 5.578125l3.109375 -5.578125l-1.046875 0l0 -1.015625l3.328125 0l0 1.015625l-1.171875 0l-5.4375 9.671875l1.578125 0l0 1.03125l-4.734375 0l0 -1.03125l2.03125 0l1.8125 -3.078125l-3.4375 -6.59375l-1.25 0l0 -1.015625l3.5625 0l0 1.015625zm14.256256 1.296875q0 0.484375 -0.375 0.8125q-0.375 0.328125 -0.890625 0.328125q-0.53125 0 -0.9375 -0.328125q-0.390625 -0.328125 -0.390625 -0.78125q0 -0.4375 0.375 -0.765625q0.390625 -0.34375 0.90625 -0.34375q0.578125 0 0.9375 0.34375q0.375 0.328125 0.375 0.734375zm0 4.90625q0 0.484375 -0.375 0.8125q-0.375 0.328125 -0.890625 0.328125q-0.53125 0 -0.9375 -0.328125q-0.390625 -0.328125 -0.390625 -0.78125q0 -0.4375 0.375 -0.765625q0.390625 -0.34375 0.90625 -0.34375q0.578125 0 0.9375 0.34375q0.375 0.328125 0.375 0.734375zm13.100006 -6.875q0 0.734375 -0.203125 1.265625q-0.1875 0.515625 -0.765625 1.15625q-0.578125 0.640625 -1.78125 1.609375l-3.296875 2.6875l5.03125 0l0 -1.3125l1.015625 0l0 2.34375l-7.515625 0l0 -1.09375l4.15625 -3.265625q1.46875 -1.15625 1.90625 -1.84375q0.453125 -0.703125 0.453125 -1.296875q0 -1.03125 -0.765625 -1.703125q-0.75 -0.6875 -1.90625 -0.6875q-1.0 0 -1.703125 0.484375q-0.6875 0.484375 -0.71875 1.3125l-1.0 0l0 -1.328125q1.421875 -1.46875 3.484375 -1.46875q0.96875 0 1.796875 0.4375q0.84375 0.421875 1.328125 1.15625q0.484375 0.71875 0.484375 1.546875zm8.428131 -3.59375l0 2.390625q0 1.15625 0.15625 1.796875q0.15625 0.640625 0.5 1.015625q0.34375 0.375 1.015625 0.671875l0 0.96875q-0.703125 0.328125 -1.0625 0.703125q-0.34375 0.375 -0.484375 1.0q-0.125 0.625 -0.125 1.765625l0 2.40625q0 1.484375 -0.625 2.15625q-0.609375 0.6875 -2.171875 0.765625l0 -1.03125q0.96875 -0.0625 1.359375 -0.453125q0.40625 -0.375 0.40625 -1.109375l0 -3.359375q0 -1.234375 0.359375 -2.046875q0.359375 -0.8125 1.078125 -1.28125q-0.71875 -0.515625 -1.078125 -1.296875q-0.359375 -0.796875 -0.359375 -1.953125l0 -3.421875q0 -0.75 -0.40625 -1.125q-0.390625 -0.390625 -1.359375 -0.453125l0 -1.015625q1.5625 0.078125 2.171875 0.78125q0.625 0.6875 0.625 2.125zm9.631256 13.75l-1.21875 0l1.375 -4.65625l1.78125 0l-1.9375 4.65625zm14.975006 -9.421875l0 -1.078125l2.171875 0l0 1.015625l-1.15625 0l0 7.671875q0 1.40625 -0.984375 2.21875q-0.984375 0.8125 -2.8125 0.8125q-1.734375 0 -4.09375 -0.5625l0.203125 -1.015625q1.4375 0.359375 2.109375 0.453125q0.671875 0.109375 1.390625 0.109375q1.734375 0 2.453125 -0.53125q0.71875 -0.515625 0.71875 -1.703125l0 -2.390625q-0.546875 0.65625 -1.46875 1.015625q-0.921875 0.34375 -1.921875 0.34375q-1.328125 0 -2.3125 -0.515625q-0.96875 -0.53125 -1.5 -1.390625q-0.515625 -0.875 -0.515625 -1.890625q0 -1.015625 0.546875 -1.90625q0.546875 -0.890625 1.53125 -1.4375q1.0 -0.546875 2.265625 -0.546875q1.0 0 1.90625 0.359375q0.90625 0.359375 1.46875 0.96875zm-3.375 5.34375q0.9375 0 1.6875 -0.375q0.75 -0.375 1.1875 -1.015625q0.453125 -0.65625 0.453125 -1.4375q0 -0.765625 -0.390625 -1.40625q-0.375 -0.640625 -1.125 -1.015625q-0.75 -0.390625 -1.796875 -0.390625q-0.890625 0 -1.65625 0.375q-0.765625 0.375 -1.234375 1.03125q-0.453125 0.640625 -0.453125 1.453125q0 0.765625 0.453125 1.40625q0.453125 0.625 1.21875 1.0q0.765625 0.375 1.65625 0.375zm16.521881 -2.375q0 1.25 -0.578125 2.21875q-0.578125 0.96875 -1.625 1.515625q-1.046875 0.53125 -2.421875 0.53125q-1.40625 0 -2.484375 -0.53125q-1.078125 -0.546875 -1.671875 -1.515625q-0.578125 -0.96875 -0.578125 -2.21875q0 -1.265625 0.609375 -2.25q0.609375 -0.984375 1.6875 -1.515625q1.078125 -0.53125 2.46875 -0.53125q1.421875 0 2.46875 0.59375q1.046875 0.59375 1.578125 1.578125q0.546875 0.96875 0.546875 2.125zm-4.640625 3.25q1.0625 0 1.875 -0.421875q0.828125 -0.421875 1.28125 -1.140625q0.46875 -0.734375 0.46875 -1.640625q0 -0.90625 -0.421875 -1.65625q-0.421875 -0.765625 -1.25 -1.203125q-0.828125 -0.453125 -1.984375 -0.453125q-1.0625 0 -1.90625 0.4375q-0.828125 0.4375 -1.296875 1.1875q-0.453125 0.75 -0.453125 1.65625q0 0.859375 0.4375 1.609375q0.453125 0.75 1.296875 1.1875q0.84375 0.4375 1.953125 0.4375zm11.600006 -0.234375l3.25 0l0 1.03125l-7.53125 0l0 -1.03125l3.265625 0l0 -9.640625l-3.171875 0l0 -1.03125l4.1875 0l0 10.671875zm14.490631 0l1.484375 0l0 1.03125l-2.5 0l0 -1.421875q-0.546875 0.78125 -1.40625 1.21875q-0.84375 0.421875 -1.859375 0.421875q-1.234375 0 -2.171875 -0.5625q-0.9375 -0.578125 -1.46875 -1.546875q-0.515625 -0.984375 -0.515625 -2.171875q0 -1.21875 0.53125 -2.1875q0.546875 -0.96875 1.5 -1.53125q0.96875 -0.5625 2.203125 -0.5625q2.046875 0 3.1875 1.453125l0 -3.78125l-2.53125 0l0 -1.03125l3.546875 0l0 10.671875zm-4.265625 0.234375q0.921875 0 1.640625 -0.421875q0.71875 -0.4375 1.109375 -1.1875q0.40625 -0.765625 0.40625 -1.734375q0 -1.421875 -0.828125 -2.296875q-0.828125 -0.875 -2.34375 -0.875q-0.875 0 -1.59375 0.4375q-0.71875 0.4375 -1.125 1.1875q-0.40625 0.75 -0.40625 1.625q0 0.875 0.390625 1.625q0.390625 0.734375 1.109375 1.1875q0.71875 0.453125 1.640625 0.453125zm11.678131 -3.546875l2.4375 -6.328125l2.703125 0l0 1.03125l-0.859375 0l0 8.609375l0.875 0l0 1.03125l-2.984375 0l0 -1.03125l1.078125 0l0 -8.609375l-0.203125 0l-2.671875 7.015625l-0.78125 0l-2.71875 -7.015625l-0.171875 0l0 8.609375l1.140625 0l0 1.03125l-3.0625 0l0 -1.03125l0.890625 0l0 -8.609375l-0.890625 0l0 -1.03125l2.765625 0l2.453125 6.328125zm11.803131 -5.5625l-1.328125 0l0 -2.296875l1.328125 0l0 2.296875zm0 8.875l3.21875 0l0 1.03125l-7.53125 0l0 -1.03125l3.28125 0l0 -6.046875l-2.84375 0l0 -1.015625l3.875 0l0 7.0625zm14.193756 -4.84375l0 4.84375l1.53125 0l0 1.03125l-4.078125 0l0 -1.03125l1.53125 0l0 -4.8125q0 -0.6875 -0.46875 -1.078125q-0.453125 -0.390625 -1.375 -0.390625q-0.796875 0 -1.703125 0.4375q-0.890625 0.4375 -1.484375 1.078125l0 4.765625l1.546875 0l0 1.03125l-4.109375 0l0 -1.03125l1.5625 0l0 -6.015625l-1.5625 0l0 -1.046875l2.5625 0l0 1.171875q0.765625 -0.6875 1.671875 -1.046875q0.90625 -0.375 1.8125 -0.375q2.5625 0 2.5625 2.46875zm11.865631 1.953125l-7.65625 0q0.015625 1.296875 0.8125 2.21875q0.796875 0.921875 2.734375 0.921875q0.84375 0 1.890625 -0.3125q1.046875 -0.3125 2.015625 -0.84375l0.3125 0.984375q-1.046875 0.5625 -2.15625 0.875q-1.109375 0.296875 -2.109375 0.296875q-2.15625 0 -3.359375 -1.15625q-1.203125 -1.171875 -1.203125 -3.109375q0 -1.25 0.578125 -2.21875q0.59375 -0.984375 1.609375 -1.53125q1.03125 -0.546875 2.28125 -0.546875q1.96875 0 3.09375 1.1875q1.140625 1.171875 1.15625 3.234375zm-4.28125 -3.375q-1.3125 0 -2.234375 0.65625q-0.90625 0.65625 -1.09375 1.703125l6.5 0q-0.109375 -1.015625 -0.96875 -1.6875q-0.859375 -0.671875 -2.203125 -0.671875zm13.756256 -0.296875l0 -0.75l1.0 0l0 2.953125l-1.0 0l0 -1.109375q-0.640625 -0.390625 -1.375 -0.59375q-0.734375 -0.21875 -1.46875 -0.21875q-1.0625 0 -1.75 0.375q-0.6875 0.375 -0.6875 1.03125q0 0.6875 0.796875 1.03125q0.796875 0.328125 2.671875 0.34375q1.265625 0.015625 1.984375 0.265625q0.71875 0.234375 1.0 0.671875q0.28125 0.4375 0.28125 1.15625q0 1.203125 -0.984375 1.9375q-0.984375 0.71875 -2.5625 0.71875q-0.859375 0 -1.609375 -0.171875q-0.734375 -0.171875 -1.703125 -0.65625l0 0.828125l-1.03125 0l0 -3.171875l1.03125 0l0 1.109375q1.359375 1.046875 3.09375 1.046875q1.234375 0 1.984375 -0.40625q0.75 -0.40625 0.75 -1.125q0 -0.5 -0.296875 -0.75q-0.28125 -0.265625 -0.71875 -0.328125q-0.4375 -0.0625 -1.265625 -0.09375l-0.828125 -0.0625q-1.078125 -0.078125 -1.796875 -0.21875q-0.71875 -0.15625 -1.265625 -0.609375q-0.53125 -0.453125 -0.53125 -1.359375q0 -1.171875 0.921875 -1.875q0.921875 -0.71875 2.46875 -0.71875q1.671875 0 2.890625 0.75zm10.037506 1.8125q0 0.484375 -0.375 0.8125q-0.375 0.328125 -0.890625 0.328125q-0.53125 0 -0.9375 -0.328125q-0.390625 -0.328125 -0.390625 -0.78125q0 -0.4375 0.375 -0.765625q0.390625 -0.34375 0.90625 -0.34375q0.578125 0 0.9375 0.34375q0.375 0.328125 0.375 0.734375zm0 4.90625q0 0.484375 -0.375 0.8125q-0.375 0.328125 -0.890625 0.328125q-0.53125 0 -0.9375 -0.328125q-0.390625 -0.328125 -0.390625 -0.78125q0 -0.4375 0.375 -0.765625q0.390625 -0.34375 0.90625 -0.34375q0.578125 0 0.9375 0.34375q0.375 0.328125 0.375 0.734375zm13.100006 -6.875q0 0.734375 -0.203125 1.265625q-0.1875 0.515625 -0.765625 1.15625q-0.578125 0.640625 -1.78125 1.609375l-3.296875 2.6875l5.03125 0l0 -1.3125l1.015625 0l0 2.34375l-7.515625 0l0 -1.09375l4.15625 -3.265625q1.46875 -1.15625 1.90625 -1.84375q0.453125 -0.703125 0.453125 -1.296875q0 -1.03125 -0.765625 -1.703125q-0.75 -0.6875 -1.90625 -0.6875q-1.0 0 -1.703125 0.484375q-0.6875 0.484375 -0.71875 1.3125l-1.0 0l0 -1.328125q1.421875 -1.46875 3.484375 -1.46875q0.96875 0 1.796875 0.4375q0.84375 0.421875 1.328125 1.15625q0.484375 0.71875 0.484375 1.546875zm8.428131 -3.59375l0 2.390625q0 1.15625 0.15625 1.796875q0.15625 0.640625 0.5 1.015625q0.34375 0.375 1.015625 0.671875l0 0.96875q-0.703125 0.328125 -1.0625 0.703125q-0.34375 0.375 -0.484375 1.0q-0.125 0.625 -0.125 1.765625l0 2.40625q0 1.484375 -0.625 2.15625q-0.609375 0.6875 -2.171875 0.765625l0 -1.03125q0.96875 -0.0625 1.359375 -0.453125q0.40625 -0.375 0.40625 -1.109375l0 -3.359375q0 -1.234375 0.359375 -2.046875q0.359375 -0.8125 1.078125 -1.28125q-0.71875 -0.515625 -1.078125 -1.296875q-0.359375 -0.796875 -0.359375 -1.953125l0 -3.421875q0 -0.75 -0.40625 -1.125q-0.390625 -0.390625 -1.359375 -0.453125l0 -1.015625q1.5625 0.078125 2.171875 0.78125q0.625 0.6875 0.625 2.125z" fill-rule="nonzero"/>
  </g>
</svg>
